<svg xmlns="http://www.w3.org/2000/svg" xmlns:xlink="http://www.w3.org/1999/xlink" width="1708" zoomAndPan="magnify" viewBox="0 0 1281 1155.749949" height="1541" preserveAspectRatio="xMidYMid meet" version="1.0"><defs><g/><clipPath id="21b69d0c2f"><path d="M 1 587 L 496.46875 587 L 496.46875 756 L 1 756 Z M 1 587 " clip-rule="nonzero"/></clipPath><clipPath id="a042f0b245"><path d="M 1000 464 L 1280.859375 464 L 1280.859375 603 L 1000 603 Z M 1000 464 " clip-rule="nonzero"/></clipPath><clipPath id="0cd342a88f"><path d="M 996.039062 474.339844 L 1275.570312 464.949219 L 1280.003906 596.84375 L 1000.472656 606.238281 Z M 996.039062 474.339844 " clip-rule="nonzero"/></clipPath><clipPath id="9998bc6b01"><path d="M 996.039062 474.339844 L 1423.957031 459.960938 L 1428.386719 591.859375 L 1000.472656 606.238281 Z M 996.039062 474.339844 " clip-rule="nonzero"/></clipPath><clipPath id="2cf243b9fb"><path d="M 161 500 L 248 500 L 248 631 L 161 631 Z M 161 500 " clip-rule="nonzero"/></clipPath><clipPath id="eb6035684b"><path d="M 151.847656 426.851562 L 409.042969 460.925781 L 379.894531 680.957031 L 122.695312 646.882812 Z M 151.847656 426.851562 " clip-rule="nonzero"/></clipPath><clipPath id="a48c9a0709"><path d="M 151.847656 426.851562 L 409.042969 460.925781 L 379.894531 680.957031 L 122.695312 646.882812 Z M 151.847656 426.851562 " clip-rule="nonzero"/></clipPath><clipPath id="94ced6d24d"><path d="M 247 452 L 363 452 L 363 647 L 247 647 Z M 247 452 " clip-rule="nonzero"/></clipPath><clipPath id="22101b7e3b"><path d="M 151.847656 426.851562 L 409.042969 460.925781 L 379.894531 680.957031 L 122.695312 646.882812 Z M 151.847656 426.851562 " clip-rule="nonzero"/></clipPath><clipPath id="7bc2f34342"><path d="M 151.847656 426.851562 L 409.042969 460.925781 L 379.894531 680.957031 L 122.695312 646.882812 Z M 151.847656 426.851562 " clip-rule="nonzero"/></clipPath></defs><g fill="#ffffff" fill-opacity="1"><g transform="translate(425.883937, 697.286739)"><g><path d="M 299.136719 -425.152344 C 292.40625 -441.054688 282.007812 -450.84375 267.324219 -454.515625 C 248.363281 -459.40625 226.953125 -454.515625 204.929688 -444.113281 L 204.929688 -443.503906 C 157.824219 -420.257812 110.109375 -368.261719 81.972656 -321.769531 C 92.984375 -359.085938 105.828125 -393.953125 120.511719 -425.761719 C 126.015625 -437.386719 125.40625 -450.84375 119.285156 -462.464844 L 115.003906 -471.03125 C 112.558594 -474.703125 108.277344 -477.761719 103.382812 -477.761719 C 99.101562 -477.148438 94.816406 -474.703125 92.371094 -470.417969 C 39.761719 -367.035156 6.117188 -203.09375 0 -20.1875 C -0.613281 -8.5625 6.117188 2.445312 16.515625 6.730469 L 21.410156 9.175781 C 22.632812 9.789062 24.46875 10.398438 26.304688 10.398438 C 28.75 10.398438 31.199219 9.789062 33.035156 8.5625 C 36.703125 6.117188 39.152344 1.835938 39.152344 -2.445312 C 39.761719 -100.324219 50.160156 -190.859375 69.125 -272.21875 L 69.125 -272.832031 C 82.582031 -321.769531 148.039062 -404.964844 208.597656 -435.550781 C 209.210938 -435.550781 244.691406 -447.785156 259.984375 -431.269531 C 274.667969 -416.585938 267.9375 -307.085938 203.707031 -184.128906 C 189.023438 -155.992188 173.121094 -130.296875 157.214844 -108.277344 C 110.722656 -108.277344 75.855469 -89.3125 61.785156 -69.125 C 52.609375 -55.054688 51.386719 -40.375 58.113281 -26.917969 C 64.230469 -14.679688 74.632812 -8.5625 87.476562 -8.5625 L 88.699219 -8.5625 C 120.511719 -8.5625 165.777344 -43.433594 205.539062 -96.042969 L 206.152344 -96.042969 C 264.878906 -96.042969 298.523438 -117.453125 300.359375 -118.675781 C 302.195312 -119.898438 302.804688 -122.957031 301.582031 -124.792969 C 300.359375 -127.238281 297.300781 -127.851562 295.464844 -126.015625 C 294.851562 -126.015625 264.878906 -107.050781 212.269531 -105.21875 C 220.222656 -116.226562 227.5625 -127.238281 234.902344 -139.472656 C 279.558594 -215.941406 326.050781 -361.53125 299.136719 -425.152344 Z M 127.238281 -70.960938 C 105.21875 -46.492188 84.417969 -32.421875 72.183594 -33.644531 C 69.738281 -33.644531 65.453125 -34.867188 63.007812 -41.597656 C 61.785156 -50.160156 65.453125 -58.113281 69.125 -63.621094 C 81.359375 -81.359375 110.722656 -97.875 150.484375 -99.101562 C 142.53125 -88.699219 135.191406 -79.523438 127.238281 -70.960938 Z M 127.238281 -70.960938 "/></g></g></g><g fill="#ffffff" fill-opacity="1"><g transform="translate(715.78756, 697.286739)"><g><path d="M 250.808594 -477.148438 C 221.445312 -475.3125 170.058594 -447.785156 121.121094 -392.117188 C 80.136719 -345.625 26.917969 -261.820312 4.28125 -129.6875 C -11.011719 -39.152344 18.351562 -5.503906 45.878906 6.117188 C 56.277344 11.011719 68.511719 13.457031 81.359375 13.457031 C 99.101562 13.457031 119.898438 9.175781 141.308594 0.613281 L 147.425781 -2.445312 L 165.167969 -10.398438 C 211.65625 -34.257812 256.925781 -73.40625 292.40625 -119.898438 C 294.242188 -121.734375 293.628906 -124.179688 291.792969 -126.015625 C 289.960938 -127.238281 286.902344 -127.238281 285.675781 -125.40625 C 244.691406 -72.183594 193.304688 -31.808594 145.589844 -11.011719 C 144.980469 -11.011719 144.367188 -11.011719 144.367188 -10.398438 C 125.40625 -1.835938 97.265625 0 75.242188 -17.128906 C 51.386719 -34.867188 42.820312 -69.125 51.386719 -113.78125 C 76.464844 -253.253906 130.910156 -335.226562 171.894531 -379.273438 C 217.164062 -427.597656 260.597656 -445.339844 269.773438 -444.726562 C 285.675781 -442.890625 288.125 -421.480469 288.734375 -417.8125 C 288.734375 -389.058594 278.335938 -355.414062 259.984375 -334.003906 C 258.761719 -332.167969 258.761719 -329.722656 260.597656 -327.886719 C 262.429688 -326.050781 265.488281 -326.664062 267.324219 -328.5 C 286.902344 -351.132812 297.910156 -386.613281 297.300781 -417.199219 L 297.300781 -417.8125 C 297.300781 -431.878906 294.851562 -444.726562 289.347656 -455.125 C 281.394531 -471.03125 267.9375 -478.371094 250.808594 -477.148438 Z M 250.808594 -477.148438 "/></g></g></g><g clip-path="url(#21b69d0c2f)"><path fill="#ffffff" d="M 55.746094 708.886719 C 62.125 711.175781 68.046875 713.429688 74.082031 715.414062 C 80.113281 717.398438 84.929688 721.25 89.550781 725.332031 C 92.835938 728.234375 93.902344 732.050781 92.375 736.285156 C 91.382812 739.070312 90.3125 741.929688 88.898438 744.527344 C 83.707031 753.988281 75.074219 757.078125 64.761719 754.253906 C 51.316406 750.59375 47.191406 745.328125 44.859375 728.84375 C 44.363281 725.371094 44.785156 721.785156 44.785156 717.664062 C 42.453125 717.96875 40.046875 718.007812 37.757812 718.578125 C 28.78125 720.753906 20.261719 723.769531 13.121094 730.101562 C 10.636719 732.277344 7.125 733.421875 3.953125 734.644531 C 1.851562 735.445312 1.242188 734.605469 1.964844 732.429688 C 3.761719 726.898438 7.351562 722.050781 12.164062 718.734375 C 22.476562 711.519531 33.554688 706.523438 46.542969 707.132812 C 47.265625 707.171875 48.449219 706.410156 48.71875 705.722656 C 55.515625 689.542969 65.867188 675.996094 77.898438 663.292969 C 91.613281 648.792969 108.113281 637.15625 126.410156 629.105469 C 142.296875 622.046875 158.339844 614.492188 175.414062 610.828125 C 201.617188 605.21875 228.085938 604.835938 254.632812 609.300781 C 282.285156 613.917969 309.40625 620.75 336.601562 627.234375 C 354.628906 631.546875 372.695312 636.011719 391.21875 637.078125 C 405.46875 637.917969 419.828125 637.691406 434.113281 637.230469 C 445.496094 636.886719 456.878906 635.933594 468.183594 634.40625 C 481.742188 632.578125 494.195312 626.929688 506.722656 621.816406 C 523.035156 615.214844 536.289062 604.800781 545.949219 589.996094 C 546.980469 588.429688 548.089844 586.867188 550.191406 587.742188 C 552.292969 588.621094 552.0625 590.679688 551.640625 592.359375 C 550.496094 597.398438 548.011719 602.050781 544.460938 605.828125 C 534.453125 616.359375 523.453125 625.480469 509.742188 630.9375 C 496.371094 636.277344 483.234375 642.304688 468.832031 644.40625 C 459.515625 645.742188 450.078125 646.734375 440.644531 647.230469 C 426.742188 647.914062 412.800781 648.527344 398.859375 648.257812 C 378.269531 647.878906 358.257812 643.183594 338.28125 638.679688 C 315.972656 633.722656 293.78125 627.960938 271.398438 623.230469 C 253.027344 619.335938 234.464844 616.167969 215.480469 616.78125 C 202.113281 617.238281 188.398438 616.855469 175.679688 620.902344 C 149.554688 629.21875 122.855469 636.773438 100.472656 653.601562 C 82.75 666.917969 67.546875 682.675781 58.039062 703.125 C 57.160156 704.957031 56.546875 706.902344 55.746094 708.886719 Z M 53.226562 719.304688 C 51.734375 725.410156 52.882812 730.828125 54.601562 736.207031 C 56.890625 743.230469 63.5 747.539062 71.292969 747.195312 C 78.050781 746.890625 82.023438 743.113281 83.898438 735.175781 C 83.933594 735.101562 84.011719 734.988281 83.972656 734.910156 C 83.554688 733.804688 83.476562 732.277344 82.675781 731.628906 C 74.195312 724.683594 63.996094 721.746094 53.226562 719.304688 Z M 53.226562 719.304688 " fill-opacity="1" fill-rule="nonzero"/></g><g clip-path="url(#a042f0b245)"><g clip-path="url(#0cd342a88f)"><g clip-path="url(#9998bc6b01)"><path fill="#ffffff" d="M 1041.808594 567.464844 C 1046.816406 569.070312 1051.464844 570.664062 1056.195312 572.042969 C 1060.925781 573.421875 1064.757812 576.285156 1068.449219 579.328125 C 1071.070312 581.488281 1072 584.417969 1070.925781 587.738281 C 1070.226562 589.921875 1069.472656 592.167969 1068.445312 594.214844 C 1064.664062 601.683594 1058.050781 604.304688 1049.980469 602.382812 C 1039.460938 599.894531 1036.125 595.921875 1033.890625 583.210938 C 1033.414062 580.535156 1033.648438 577.742188 1033.539062 574.550781 C 1031.742188 574.847656 1029.875 574.941406 1028.113281 575.441406 C 1021.210938 577.363281 1014.6875 579.921875 1009.3125 585.015625 C 1007.445312 586.765625 1004.75 587.742188 1002.324219 588.773438 C 1000.714844 589.445312 1000.21875 588.8125 1000.726562 587.109375 C 1001.972656 582.773438 1004.632812 578.925781 1008.277344 576.226562 C 1016.085938 570.371094 1024.542969 566.210938 1034.628906 566.34375 C 1035.191406 566.355469 1036.089844 565.734375 1036.277344 565.195312 C 1041.128906 552.480469 1048.800781 541.714844 1057.800781 531.554688 C 1068.054688 519.960938 1080.542969 510.515625 1094.519531 503.800781 C 1106.65625 497.914062 1118.898438 491.644531 1132.039062 488.359375 C 1152.207031 483.332031 1172.722656 482.34375 1193.421875 485.113281 C 1214.980469 487.96875 1236.1875 492.554688 1257.441406 496.875 C 1271.53125 499.746094 1285.65625 502.734375 1300.046875 503.078125 C 1311.113281 503.359375 1322.242188 502.804688 1333.308594 502.078125 C 1342.125 501.515625 1350.925781 500.480469 1359.648438 499.003906 C 1370.117188 497.230469 1379.621094 492.53125 1389.203125 488.242188 C 1401.675781 482.703125 1411.683594 474.285156 1418.789062 462.5625 C 1419.546875 461.324219 1420.367188 460.082031 1422.019531 460.707031 C 1423.667969 461.332031 1423.546875 462.933594 1423.261719 464.246094 C 1422.507812 468.179688 1420.703125 471.851562 1418.046875 474.871094 C 1410.5625 483.292969 1402.269531 490.644531 1391.78125 495.230469 C 1381.554688 499.71875 1371.523438 504.730469 1360.414062 506.734375 C 1353.222656 508.011719 1345.933594 509.023438 1338.632812 509.65625 C 1327.871094 510.550781 1317.078125 511.386719 1306.261719 511.542969 C 1290.289062 511.785156 1274.648438 508.667969 1259.042969 505.699219 C 1241.617188 502.4375 1224.261719 498.550781 1206.785156 495.46875 C 1192.4375 492.929688 1177.960938 490.960938 1163.261719 491.929688 C 1152.90625 492.632812 1142.265625 492.691406 1132.507812 496.160156 C 1112.46875 503.285156 1091.964844 509.835938 1075.050781 523.457031 C 1061.65625 534.238281 1050.277344 546.84375 1043.4375 562.941406 C 1042.804688 564.382812 1042.378906 565.90625 1041.808594 567.464844 Z M 1040.125 575.601562 C 1039.128906 580.371094 1040.160156 584.539062 1041.632812 588.664062 C 1043.59375 594.042969 1048.828125 597.214844 1054.859375 596.746094 C 1060.09375 596.332031 1063.078125 593.300781 1064.320312 587.101562 C 1064.347656 587.042969 1064.40625 586.953125 1064.375 586.894531 C 1064.019531 586.046875 1063.917969 584.867188 1063.28125 584.382812 C 1056.527344 579.222656 1048.542969 577.214844 1040.125 575.601562 Z M 1040.125 575.601562 " fill-opacity="1" fill-rule="nonzero"/></g></g></g><g clip-path="url(#2cf243b9fb)"><g clip-path="url(#eb6035684b)"><g clip-path="url(#a48c9a0709)"><path fill="#ffffff" d="M 176.769531 500.191406 C 176.769531 500.191406 184.289062 507.339844 191.296875 506.730469 C 191.296875 506.730469 201.652344 501.179688 206.621094 501.453125 C 206.621094 501.453125 217.445312 509.808594 229.214844 505.214844 C 229.214844 505.214844 233.003906 511.484375 232.050781 518.664062 C 230.773438 525.417969 220.992188 529.503906 219.59375 540.082031 C 218.519531 551.089844 221.632812 565.347656 223.785156 575.242188 C 225.511719 585.46875 227.210938 624.910156 183.175781 608.695312 C 207.195312 624.949219 234.585938 612.816406 240.433594 583.214844 C 242.265625 572.308594 248.519531 577.367188 247.746094 586.109375 C 240.683594 659.761719 123.25 636.898438 173.820312 554.398438 C 181.675781 541.597656 181.6875 526.988281 177.898438 520.71875 C 174.109375 514.449219 175.105469 501.125 176.769531 500.191406 Z M 210.738281 508.152344 C 211.820312 508.679688 212.429688 509.914062 212.277344 511.046875 C 212.078125 512.558594 210.414062 513.492188 208.902344 513.289062 C 207.390625 513.089844 206.402344 511.804688 206.605469 510.296875 C 206.703125 509.539062 207.183594 508.832031 208.039062 508.179688 C 207.9375 508.933594 208.644531 509.410156 209.023438 509.460938 C 210.160156 509.613281 210.585938 509.285156 210.6875 508.527344 C 210.738281 508.152344 210.738281 508.152344 210.738281 508.152344 Z M 210.738281 508.152344 " fill-opacity="1" fill-rule="evenodd"/></g></g></g><g clip-path="url(#94ced6d24d)"><g clip-path="url(#22101b7e3b)"><g clip-path="url(#7bc2f34342)"><path fill="#ffffff" d="M 309.582031 627.75 C 277.082031 626.136719 260.191406 599.675781 261.570312 566.023438 C 262.058594 550.707031 250.316406 557.996094 249.921875 566.785156 C 246.414062 613.613281 276.921875 641.878906 314.515625 645.707031 C 381.714844 652.6875 367.707031 534.714844 340.140625 498.765625 C 340.140625 498.765625 330.773438 511.367188 319.554688 511.800781 C 308.007812 511.808594 297.6875 499.675781 299.703125 475.722656 C 300.128906 495.769531 316.136719 520.191406 333.234375 498.621094 C 339.730469 490.253906 341.511719 479.722656 336.816406 474.488281 C 332.5 469.300781 310.246094 451.359375 296.984375 452.675781 C 283.726562 453.996094 270.269531 462.59375 267.90625 468.816406 C 265.441406 475.796875 266.554688 479.019531 263.582031 484.007812 C 260.613281 489 253.609375 495.375 247.238281 499.914062 C 252.5 518.296875 259.585938 520.003906 277.105469 518.480469 C 284.492188 517.921875 298.191406 527.8125 291.734375 550.410156 C 289.699219 557.0625 285.871094 562.707031 282.421875 568.402344 C 266.1875 595.085938 281.488281 619.03125 309.582031 627.75 Z M 276.558594 476.117188 C 277.59375 477.023438 278.578125 478.304688 278.378906 479.816406 C 278.078125 482.085938 275.988281 483.34375 274.097656 483.09375 C 271.828125 482.792969 270.515625 481.082031 270.816406 478.816406 C 270.964844 477.679688 271.871094 476.648438 272.679688 476.371094 C 272.578125 477.125 273.234375 477.980469 274.367188 478.132812 C 275.503906 478.28125 276.410156 477.25 276.511719 476.492188 C 276.558594 476.117188 276.558594 476.117188 276.558594 476.117188 Z M 276.558594 476.117188 " fill-opacity="1" fill-rule="evenodd"/></g></g></g><g fill="#ffffff" fill-opacity="1"><g transform="translate(112.127935, 827.238231)"><g><path d="M 6.90625 0.34375 C 6.289062 0.34375 5.8125 0.09375 5.46875 -0.40625 C 5.125 -0.90625 4.953125 -1.5 4.953125 -2.1875 C 5.023438 -3.34375 5.253906 -4.035156 5.640625 -4.265625 C 6.023438 -4.492188 6.753906 -4.609375 7.828125 -4.609375 C 10.054688 -4.609375 11.707031 -5.007812 12.78125 -5.8125 C 13.851562 -6.625 14.523438 -7.625 14.796875 -8.8125 C 15.066406 -10 15.238281 -11.550781 15.3125 -13.46875 L 15.3125 -59.1875 C 15.238281 -61.101562 15.066406 -62.65625 14.796875 -63.84375 C 14.523438 -65.03125 13.851562 -66.023438 12.78125 -66.828125 C 11.707031 -67.640625 10.054688 -68.046875 7.828125 -68.046875 L 7.140625 -68.046875 C 6.367188 -68.046875 5.828125 -68.179688 5.515625 -68.453125 C 5.210938 -68.722656 5.023438 -69.394531 4.953125 -70.46875 C 4.953125 -71.15625 5.125 -71.75 5.46875 -72.25 C 5.8125 -72.75 6.289062 -73 6.90625 -73 C 11.96875 -72.769531 16.535156 -72.65625 20.609375 -72.65625 L 38.578125 -72.65625 C 45.941406 -72.65625 52.632812 -71.175781 58.65625 -68.21875 C 64.6875 -65.257812 69.445312 -61.015625 72.9375 -55.484375 C 76.4375 -49.960938 78.1875 -43.441406 78.1875 -35.921875 C 78.1875 -28.085938 76.207031 -21.460938 72.25 -16.046875 C 68.300781 -10.640625 63.160156 -6.613281 56.828125 -3.96875 C 50.492188 -1.320312 43.71875 0 36.5 0 L 20.609375 0 C 16.535156 0 11.96875 0.113281 6.90625 0.34375 Z M 38.234375 -4.265625 C 47.210938 -4.265625 53.789062 -7.046875 57.96875 -12.609375 C 62.15625 -18.171875 64.25 -25.941406 64.25 -35.921875 C 64.25 -42.210938 63.113281 -47.832031 60.84375 -52.78125 C 58.582031 -57.738281 55.300781 -61.597656 51 -64.359375 C 46.707031 -67.128906 41.601562 -68.515625 35.6875 -68.515625 L 26.71875 -68.390625 L 26.71875 -12.09375 C 26.71875 -9.09375 27.617188 -7.035156 29.421875 -5.921875 C 31.222656 -4.816406 34.160156 -4.265625 38.234375 -4.265625 Z M 38.234375 -4.265625 "/></g></g></g><g fill="#ffffff" fill-opacity="1"><g transform="translate(195.922724, 827.238231)"><g><path d="M 6.90625 0.34375 C 6.289062 0.34375 5.8125 0.09375 5.46875 -0.40625 C 5.125 -0.90625 4.953125 -1.5 4.953125 -2.1875 C 5.023438 -3.34375 5.253906 -4.035156 5.640625 -4.265625 C 6.023438 -4.492188 6.753906 -4.609375 7.828125 -4.609375 C 10.054688 -4.609375 11.707031 -5.007812 12.78125 -5.8125 C 13.851562 -6.625 14.523438 -7.625 14.796875 -8.8125 C 15.066406 -10 15.238281 -11.550781 15.3125 -13.46875 L 15.3125 -59.1875 C 15.238281 -61.101562 15.066406 -62.65625 14.796875 -63.84375 C 14.523438 -65.03125 13.851562 -66.023438 12.78125 -66.828125 C 11.707031 -67.640625 10.054688 -68.046875 7.828125 -68.046875 L 7.140625 -68.046875 C 6.367188 -68.046875 5.828125 -68.179688 5.515625 -68.453125 C 5.210938 -68.722656 5.023438 -69.394531 4.953125 -70.46875 C 4.953125 -71.15625 5.125 -71.75 5.46875 -72.25 C 5.8125 -72.75 6.289062 -73 6.90625 -73 C 11.96875 -72.769531 16.535156 -72.65625 20.609375 -72.65625 L 56.765625 -72.65625 C 58.765625 -72.65625 59.765625 -71.734375 59.765625 -69.890625 L 60.109375 -53.765625 C 60.109375 -53.078125 59.757812 -52.519531 59.0625 -52.09375 C 58.375 -51.675781 57.6875 -51.46875 57 -51.46875 C 56.070312 -51.46875 55.265625 -51.640625 54.578125 -51.984375 C 53.890625 -52.328125 53.503906 -52.847656 53.421875 -53.546875 C 52.804688 -57.304688 52.132812 -60.160156 51.40625 -62.109375 C 50.675781 -64.066406 49.601562 -65.523438 48.1875 -66.484375 C 46.769531 -67.453125 44.753906 -67.972656 42.140625 -68.046875 L 26.71875 -68.046875 L 26.71875 -38.796875 L 47.546875 -38.796875 C 48.085938 -38.722656 48.507812 -38.4375 48.8125 -37.9375 C 49.125 -37.4375 49.28125 -36.84375 49.28125 -36.15625 C 49.28125 -35.539062 49.125 -35 48.8125 -34.53125 C 48.507812 -34.070312 48.085938 -33.84375 47.546875 -33.84375 L 26.71875 -33.84375 L 26.71875 -12.09375 C 26.863281 -10.476562 27.050781 -9.191406 27.28125 -8.234375 C 27.519531 -7.273438 28.210938 -6.410156 29.359375 -5.640625 C 30.515625 -4.867188 32.316406 -4.523438 34.765625 -4.609375 L 45.359375 -4.609375 C 48.046875 -4.679688 50.082031 -5.117188 51.46875 -5.921875 C 52.851562 -6.734375 53.945312 -7.984375 54.75 -9.671875 C 55.550781 -11.359375 56.53125 -14.125 57.6875 -17.96875 C 58.21875 -19.34375 59.519531 -19.878906 61.59375 -19.578125 C 62.363281 -19.421875 63.035156 -19.113281 63.609375 -18.65625 C 64.191406 -18.195312 64.441406 -17.617188 64.359375 -16.921875 L 62.0625 -2.421875 C 61.832031 -1.421875 61.484375 -0.765625 61.015625 -0.453125 C 60.554688 -0.148438 59.789062 0 58.71875 0 L 20.71875 0 C 16.570312 0 11.96875 0.113281 6.90625 0.34375 Z M 6.90625 0.34375 "/></g></g></g><g fill="#ffffff" fill-opacity="1"><g transform="translate(264.293777, 827.238231)"><g><path d="M 7.140625 0.34375 C 6.453125 0.34375 5.929688 0.09375 5.578125 -0.40625 C 5.234375 -0.90625 5.0625 -1.5 5.0625 -2.1875 C 5.144531 -3.34375 5.375 -4.035156 5.75 -4.265625 C 6.132812 -4.492188 6.863281 -4.609375 7.9375 -4.609375 C 10.164062 -4.609375 11.796875 -5.007812 12.828125 -5.8125 C 13.867188 -6.625 14.503906 -7.582031 14.734375 -8.6875 C 14.960938 -9.800781 15.117188 -11.394531 15.203125 -13.46875 L 15.421875 -59.1875 C 15.421875 -61.488281 15.171875 -63.234375 14.671875 -64.421875 C 14.179688 -65.609375 13.394531 -66.46875 12.3125 -67 C 11.238281 -67.539062 9.707031 -68.003906 7.71875 -68.390625 C 6.40625 -68.617188 5.59375 -68.847656 5.28125 -69.078125 C 4.976562 -69.316406 4.828125 -69.972656 4.828125 -71.046875 C 4.828125 -71.960938 5.078125 -72.570312 5.578125 -72.875 C 6.078125 -73.1875 6.863281 -73.34375 7.9375 -73.34375 C 12.695312 -73.34375 16.457031 -73.015625 19.21875 -72.359375 C 21.988281 -71.710938 24.425781 -70.546875 26.53125 -68.859375 C 28.644531 -67.171875 30.96875 -64.597656 33.5 -61.140625 L 65.046875 -19.6875 L 65.40625 -19.6875 L 65.171875 -59.1875 C 65.085938 -61.257812 64.929688 -62.847656 64.703125 -63.953125 C 64.472656 -65.066406 63.835938 -66.023438 62.796875 -66.828125 C 61.765625 -67.640625 60.140625 -68.046875 57.921875 -68.046875 L 57.21875 -68.046875 C 56.457031 -68.046875 55.898438 -68.179688 55.546875 -68.453125 C 55.203125 -68.722656 54.992188 -69.394531 54.921875 -70.46875 C 54.921875 -71.15625 55.113281 -71.75 55.5 -72.25 C 55.882812 -72.75 56.382812 -73 57 -73 C 61.90625 -72.769531 65.585938 -72.65625 68.046875 -72.65625 C 69.503906 -72.65625 72.304688 -72.734375 76.453125 -72.890625 L 78.875 -73 C 79.5625 -73 80.078125 -72.75 80.421875 -72.25 C 80.765625 -71.75 80.9375 -71.15625 80.9375 -70.46875 C 80.863281 -69.3125 80.632812 -68.617188 80.25 -68.390625 C 79.863281 -68.160156 79.132812 -68.046875 78.0625 -68.046875 C 75.832031 -68.046875 74.203125 -67.640625 73.171875 -66.828125 C 72.140625 -66.023438 71.503906 -65.066406 71.265625 -63.953125 C 71.035156 -62.847656 70.882812 -61.257812 70.8125 -59.1875 L 70.578125 -1.15625 C 70.503906 -0.15625 69.546875 0.34375 67.703125 0.34375 C 66.242188 0.34375 65.128906 -0.15625 64.359375 -1.15625 L 20.953125 -59.1875 L 20.609375 -59.1875 L 20.84375 -13.46875 C 20.914062 -11.394531 21.066406 -9.800781 21.296875 -8.6875 C 21.523438 -7.582031 22.15625 -6.625 23.1875 -5.8125 C 24.226562 -5.007812 25.863281 -4.609375 28.09375 -4.609375 L 28.78125 -4.609375 C 29.550781 -4.609375 30.109375 -4.472656 30.453125 -4.203125 C 30.796875 -3.929688 31.007812 -3.257812 31.09375 -2.1875 C 31.09375 -1.5 30.914062 -0.90625 30.5625 -0.40625 C 30.21875 0.09375 29.703125 0.34375 29.015625 0.34375 C 24.097656 0.113281 20.375 0 17.84375 0 C 16.3125 0 13.625 0.078125 9.78125 0.234375 Z M 7.140625 0.34375 "/></g></g></g><g fill="#ffffff" fill-opacity="1"><g transform="translate(349.124477, 827.238231)"><g><path d="M 6.90625 0.34375 C 6.21875 0.34375 5.695312 0.09375 5.34375 -0.40625 C 5 -0.90625 4.828125 -1.5 4.828125 -2.1875 C 4.910156 -3.34375 5.160156 -4.035156 5.578125 -4.265625 C 6.003906 -4.492188 6.71875 -4.609375 7.71875 -4.609375 C 9.9375 -4.609375 11.582031 -5.007812 12.65625 -5.8125 C 13.738281 -6.625 14.429688 -7.601562 14.734375 -8.75 C 15.046875 -9.90625 15.238281 -11.476562 15.3125 -13.46875 L 15.3125 -59.1875 C 15.238281 -61.175781 15.046875 -62.742188 14.734375 -63.890625 C 14.429688 -65.046875 13.738281 -66.023438 12.65625 -66.828125 C 11.582031 -67.640625 9.9375 -68.046875 7.71875 -68.046875 L 7.03125 -68.046875 C 6.332031 -68.046875 5.8125 -68.179688 5.46875 -68.453125 C 5.125 -68.722656 4.910156 -69.394531 4.828125 -70.46875 C 4.828125 -71.15625 5 -71.75 5.34375 -72.25 C 5.695312 -72.75 6.21875 -73 6.90625 -73 C 11.894531 -72.769531 16.460938 -72.65625 20.609375 -72.65625 C 25.210938 -72.65625 30.007812 -72.769531 35 -73 C 35.6875 -73 36.203125 -72.75 36.546875 -72.25 C 36.898438 -71.75 37.078125 -71.15625 37.078125 -70.46875 C 36.992188 -69.3125 36.738281 -68.617188 36.3125 -68.390625 C 35.894531 -68.160156 35.148438 -68.046875 34.078125 -68.046875 C 31.859375 -68.046875 30.207031 -67.640625 29.125 -66.828125 C 28.050781 -66.023438 27.378906 -65.03125 27.109375 -63.84375 C 26.847656 -62.65625 26.675781 -61.101562 26.59375 -59.1875 L 26.59375 -13.46875 C 26.675781 -11.550781 26.847656 -10 27.109375 -8.8125 C 27.378906 -7.625 28.050781 -6.625 29.125 -5.8125 C 30.207031 -5.007812 31.859375 -4.609375 34.078125 -4.609375 L 34.765625 -4.609375 C 35.535156 -4.609375 36.09375 -4.472656 36.4375 -4.203125 C 36.78125 -3.929688 36.992188 -3.257812 37.078125 -2.1875 C 37.078125 -1.5 36.898438 -0.90625 36.546875 -0.40625 C 36.203125 0.09375 35.6875 0.34375 35 0.34375 C 30.09375 0.113281 25.332031 0 20.71875 0 C 16.5 0 11.894531 0.113281 6.90625 0.34375 Z M 6.90625 0.34375 "/></g></g></g><g fill="#ffffff" fill-opacity="1"><g transform="translate(391.021872, 827.238231)"><g><path d="M 30.515625 2.296875 C 22.453125 2.296875 16.289062 0.894531 12.03125 -1.90625 C 7.769531 -4.707031 5.640625 -8.832031 5.640625 -14.28125 C 5.640625 -17.039062 6.578125 -19.320312 8.453125 -21.125 C 10.335938 -22.925781 12.78125 -23.828125 15.78125 -23.828125 C 17.539062 -23.753906 18.878906 -23.3125 19.796875 -22.5 C 20.722656 -21.695312 21.1875 -20.953125 21.1875 -20.265625 C 21.1875 -20.191406 20.800781 -19.921875 20.03125 -19.453125 C 19.269531 -18.992188 18.582031 -18.300781 17.96875 -17.375 C 17.351562 -16.457031 17.046875 -15.195312 17.046875 -13.59375 C 17.046875 -9.976562 18.140625 -7.191406 20.328125 -5.234375 C 22.515625 -3.273438 25.910156 -2.296875 30.515625 -2.296875 C 33.660156 -2.296875 36.421875 -2.910156 38.796875 -4.140625 C 41.179688 -5.367188 43.003906 -7 44.265625 -9.03125 C 45.535156 -11.070312 46.171875 -13.203125 46.171875 -15.421875 C 46.171875 -18.191406 45.382812 -20.570312 43.8125 -22.5625 C 42.238281 -24.5625 40.300781 -26.234375 38 -27.578125 C 35.695312 -28.921875 32.550781 -30.472656 28.5625 -32.234375 C 23.945312 -34.304688 20.21875 -36.1875 17.375 -37.875 C 14.539062 -39.570312 12.125 -41.816406 10.125 -44.609375 C 8.132812 -47.410156 7.140625 -50.882812 7.140625 -55.03125 C 7.140625 -61.707031 9.421875 -66.695312 13.984375 -70 C 18.554688 -73.300781 24.566406 -74.953125 32.015625 -74.953125 C 37.847656 -74.953125 42.929688 -73.722656 47.265625 -71.265625 C 51.597656 -68.816406 53.765625 -65.210938 53.765625 -60.453125 C 53.765625 -57.679688 52.820312 -55.394531 50.9375 -53.59375 C 49.0625 -51.789062 46.628906 -50.890625 43.640625 -50.890625 C 41.867188 -50.960938 40.523438 -51.398438 39.609375 -52.203125 C 38.691406 -53.015625 38.234375 -53.769531 38.234375 -54.46875 C 38.234375 -54.539062 38.75 -54.804688 39.78125 -55.265625 C 40.8125 -55.722656 41.726562 -56.410156 42.53125 -57.328125 C 43.34375 -58.253906 43.75 -59.523438 43.75 -61.140625 C 43.75 -63.984375 42.65625 -66.207031 40.46875 -67.8125 C 38.28125 -69.425781 35.5 -70.234375 32.125 -70.234375 C 27.4375 -70.234375 23.882812 -69.140625 21.46875 -66.953125 C 19.050781 -64.765625 17.84375 -62.0625 17.84375 -58.84375 C 17.84375 -56.15625 18.570312 -53.90625 20.03125 -52.09375 C 21.488281 -50.289062 23.832031 -48.507812 27.0625 -46.75 C 29.664062 -45.363281 32.503906 -43.984375 35.578125 -42.609375 C 40.492188 -40.378906 44.390625 -38.34375 47.265625 -36.5 C 50.140625 -34.65625 52.554688 -32.234375 54.515625 -29.234375 C 56.472656 -26.242188 57.453125 -22.523438 57.453125 -18.078125 C 57.453125 -14.234375 56.242188 -10.757812 53.828125 -7.65625 C 51.410156 -4.550781 48.144531 -2.113281 44.03125 -0.34375 C 39.925781 1.414062 35.421875 2.296875 30.515625 2.296875 Z M 30.515625 2.296875 "/></g></g></g><g fill="#ffffff" fill-opacity="1"><g transform="translate(453.752847, 827.238231)"><g><path d="M 6.90625 0.34375 C 6.289062 0.34375 5.8125 0.09375 5.46875 -0.40625 C 5.125 -0.90625 4.953125 -1.5 4.953125 -2.1875 C 5.023438 -3.34375 5.253906 -4.035156 5.640625 -4.265625 C 6.023438 -4.492188 6.753906 -4.609375 7.828125 -4.609375 C 10.054688 -4.609375 11.707031 -5.007812 12.78125 -5.8125 C 13.851562 -6.625 14.523438 -7.625 14.796875 -8.8125 C 15.066406 -10 15.238281 -11.550781 15.3125 -13.46875 L 15.3125 -59.1875 C 15.238281 -61.101562 15.066406 -62.65625 14.796875 -63.84375 C 14.523438 -65.03125 13.851562 -66.023438 12.78125 -66.828125 C 11.707031 -67.640625 10.054688 -68.046875 7.828125 -68.046875 L 7.140625 -68.046875 C 6.367188 -68.046875 5.828125 -68.179688 5.515625 -68.453125 C 5.210938 -68.722656 5.023438 -69.394531 4.953125 -70.46875 C 4.953125 -71.15625 5.125 -71.75 5.46875 -72.25 C 5.8125 -72.75 6.289062 -73 6.90625 -73 C 11.96875 -72.769531 16.535156 -72.65625 20.609375 -72.65625 L 56.765625 -72.65625 C 58.765625 -72.65625 59.765625 -71.734375 59.765625 -69.890625 L 60.109375 -53.765625 C 60.109375 -53.078125 59.757812 -52.519531 59.0625 -52.09375 C 58.375 -51.675781 57.6875 -51.46875 57 -51.46875 C 56.070312 -51.46875 55.265625 -51.640625 54.578125 -51.984375 C 53.890625 -52.328125 53.503906 -52.847656 53.421875 -53.546875 C 52.804688 -57.304688 52.132812 -60.160156 51.40625 -62.109375 C 50.675781 -64.066406 49.601562 -65.523438 48.1875 -66.484375 C 46.769531 -67.453125 44.753906 -67.972656 42.140625 -68.046875 L 26.71875 -68.046875 L 26.71875 -38.796875 L 47.546875 -38.796875 C 48.085938 -38.722656 48.507812 -38.4375 48.8125 -37.9375 C 49.125 -37.4375 49.28125 -36.84375 49.28125 -36.15625 C 49.28125 -35.539062 49.125 -35 48.8125 -34.53125 C 48.507812 -34.070312 48.085938 -33.84375 47.546875 -33.84375 L 26.71875 -33.84375 L 26.71875 -12.09375 C 26.863281 -10.476562 27.050781 -9.191406 27.28125 -8.234375 C 27.519531 -7.273438 28.210938 -6.410156 29.359375 -5.640625 C 30.515625 -4.867188 32.316406 -4.523438 34.765625 -4.609375 L 45.359375 -4.609375 C 48.046875 -4.679688 50.082031 -5.117188 51.46875 -5.921875 C 52.851562 -6.734375 53.945312 -7.984375 54.75 -9.671875 C 55.550781 -11.359375 56.53125 -14.125 57.6875 -17.96875 C 58.21875 -19.34375 59.519531 -19.878906 61.59375 -19.578125 C 62.363281 -19.421875 63.035156 -19.113281 63.609375 -18.65625 C 64.191406 -18.195312 64.441406 -17.617188 64.359375 -16.921875 L 62.0625 -2.421875 C 61.832031 -1.421875 61.484375 -0.765625 61.015625 -0.453125 C 60.554688 -0.148438 59.789062 0 58.71875 0 L 20.71875 0 C 16.570312 0 11.96875 0.113281 6.90625 0.34375 Z M 6.90625 0.34375 "/></g></g></g><g fill="#ffffff" fill-opacity="1"><g transform="translate(522.123901, 827.238231)"><g/></g></g><g fill="#ffffff" fill-opacity="1"><g transform="translate(547.791826, 827.238231)"><g><path d="M 41.21875 2.296875 C 34.695312 2.296875 28.726562 0.742188 23.3125 -2.359375 C 17.90625 -5.472656 13.609375 -9.90625 10.421875 -15.65625 C 7.234375 -21.414062 5.640625 -28.132812 5.640625 -35.8125 C 5.640625 -43.5625 7.175781 -50.390625 10.25 -56.296875 C 13.320312 -62.210938 17.695312 -66.800781 23.375 -70.0625 C 29.050781 -73.320312 35.691406 -74.953125 43.296875 -74.953125 C 49.890625 -74.953125 55.757812 -73.628906 60.90625 -70.984375 C 66.050781 -68.335938 68.625 -64.25 68.625 -58.71875 C 68.695312 -55.269531 67.660156 -52.332031 65.515625 -49.90625 C 63.367188 -47.488281 60.488281 -46.28125 56.875 -46.28125 C 55.5 -46.28125 54.328125 -46.53125 53.359375 -47.03125 C 52.398438 -47.53125 51.691406 -48.125 51.234375 -48.8125 C 50.773438 -49.507812 50.582031 -50.050781 50.65625 -50.4375 C 50.65625 -50.582031 51.191406 -51 52.265625 -51.6875 C 53.347656 -52.382812 54.3125 -53.347656 55.15625 -54.578125 C 56 -55.804688 56.421875 -57.300781 56.421875 -59.0625 C 56.421875 -62.519531 55.25 -65.265625 52.90625 -67.296875 C 50.5625 -69.328125 47.316406 -70.34375 43.171875 -70.34375 C 38.492188 -70.34375 34.332031 -69.019531 30.6875 -66.375 C 27.039062 -63.726562 24.195312 -59.851562 22.15625 -54.75 C 20.125 -49.644531 19.109375 -43.5625 19.109375 -36.5 C 19.109375 -30.351562 20.203125 -24.765625 22.390625 -19.734375 C 24.578125 -14.710938 27.664062 -10.722656 31.65625 -7.765625 C 35.65625 -4.816406 40.222656 -3.34375 45.359375 -3.34375 C 49.503906 -3.34375 53.054688 -4.203125 56.015625 -5.921875 C 58.972656 -7.648438 61.640625 -10.4375 64.015625 -14.28125 C 64.398438 -14.96875 64.9375 -15.3125 65.625 -15.3125 C 66.238281 -15.3125 66.929688 -15.082031 67.703125 -14.625 C 68.929688 -13.78125 69.546875 -12.9375 69.546875 -12.09375 C 69.546875 -11.632812 69.390625 -11.25 69.078125 -10.9375 C 66.160156 -7.25 63.414062 -4.460938 60.84375 -2.578125 C 58.28125 -0.703125 55.5 0.578125 52.5 1.265625 C 49.507812 1.953125 45.75 2.296875 41.21875 2.296875 Z M 41.21875 2.296875 "/></g></g></g><g fill="#ffffff" fill-opacity="1"><g transform="translate(621.342489, 827.238231)"><g><path d="M 7.03125 0.34375 C 6.332031 0.34375 5.8125 0.09375 5.46875 -0.40625 C 5.125 -0.90625 4.953125 -1.5 4.953125 -2.1875 C 5.023438 -3.34375 5.253906 -4.035156 5.640625 -4.265625 C 6.023438 -4.492188 6.753906 -4.609375 7.828125 -4.609375 C 10.054688 -4.609375 11.707031 -5.007812 12.78125 -5.8125 C 13.851562 -6.625 14.523438 -7.625 14.796875 -8.8125 C 15.066406 -10 15.238281 -11.550781 15.3125 -13.46875 L 15.3125 -59.1875 C 15.238281 -61.101562 15.066406 -62.65625 14.796875 -63.84375 C 14.523438 -65.03125 13.851562 -66.023438 12.78125 -66.828125 C 11.707031 -67.640625 10.054688 -68.046875 7.828125 -68.046875 L 7.140625 -68.046875 C 6.367188 -68.046875 5.828125 -68.179688 5.515625 -68.453125 C 5.210938 -68.722656 5.023438 -69.394531 4.953125 -70.46875 C 4.953125 -71.15625 5.125 -71.75 5.46875 -72.25 C 5.8125 -72.75 6.332031 -73 7.03125 -73 C 12.007812 -72.769531 16.535156 -72.65625 20.609375 -72.65625 C 25.210938 -72.65625 30.007812 -72.769531 35 -73 C 35.6875 -73 36.203125 -72.75 36.546875 -72.25 C 36.898438 -71.75 37.078125 -71.15625 37.078125 -70.46875 C 36.992188 -69.3125 36.757812 -68.617188 36.375 -68.390625 C 36 -68.160156 35.273438 -68.046875 34.203125 -68.046875 C 31.972656 -68.046875 30.320312 -67.640625 29.25 -66.828125 C 28.175781 -66.023438 27.503906 -65.03125 27.234375 -63.84375 C 26.960938 -62.65625 26.789062 -61.101562 26.71875 -59.1875 L 26.71875 -38.796875 L 62.859375 -38.796875 L 62.859375 -59.1875 C 62.785156 -61.101562 62.613281 -62.65625 62.34375 -63.84375 C 62.082031 -65.03125 61.410156 -66.023438 60.328125 -66.828125 C 59.253906 -67.640625 57.601562 -68.046875 55.375 -68.046875 L 54.6875 -68.046875 C 53.925781 -68.046875 53.367188 -68.179688 53.015625 -68.453125 C 52.671875 -68.722656 52.460938 -69.394531 52.390625 -70.46875 C 52.390625 -71.15625 52.582031 -71.75 52.96875 -72.25 C 53.351562 -72.75 53.851562 -73 54.46875 -73 C 59.457031 -72.769531 64.253906 -72.65625 68.859375 -72.65625 C 73.078125 -72.65625 77.644531 -72.769531 82.5625 -73 C 83.25 -73 83.765625 -72.75 84.109375 -72.25 C 84.453125 -71.75 84.625 -71.15625 84.625 -70.46875 C 84.550781 -69.3125 84.300781 -68.617188 83.875 -68.390625 C 83.457031 -68.160156 82.75 -68.046875 81.75 -68.046875 C 79.519531 -68.046875 77.847656 -67.640625 76.734375 -66.828125 C 75.628906 -66.023438 74.941406 -65.03125 74.671875 -63.84375 C 74.398438 -62.65625 74.226562 -61.101562 74.15625 -59.1875 L 74.15625 -13.46875 C 74.226562 -11.550781 74.398438 -10 74.671875 -8.8125 C 74.941406 -7.625 75.628906 -6.625 76.734375 -5.8125 C 77.847656 -5.007812 79.519531 -4.609375 81.75 -4.609375 L 82.4375 -4.609375 C 83.132812 -4.609375 83.65625 -4.472656 84 -4.203125 C 84.34375 -3.929688 84.550781 -3.257812 84.625 -2.1875 C 84.625 -1.5 84.453125 -0.90625 84.109375 -0.40625 C 83.765625 0.09375 83.25 0.34375 82.5625 0.34375 C 77.644531 0.113281 73.035156 0 68.734375 0 C 64.210938 0 59.457031 0.113281 54.46875 0.34375 C 53.851562 0.34375 53.351562 0.09375 52.96875 -0.40625 C 52.582031 -0.90625 52.390625 -1.5 52.390625 -2.1875 C 52.460938 -3.34375 52.707031 -4.035156 53.125 -4.265625 C 53.550781 -4.492188 54.300781 -4.609375 55.375 -4.609375 C 57.601562 -4.609375 59.253906 -5.007812 60.328125 -5.8125 C 61.410156 -6.625 62.082031 -7.625 62.34375 -8.8125 C 62.613281 -10 62.785156 -11.550781 62.859375 -13.46875 L 62.859375 -33.84375 L 26.71875 -33.84375 L 26.71875 -13.46875 C 26.789062 -11.550781 26.960938 -10 27.234375 -8.8125 C 27.503906 -7.625 28.175781 -6.625 29.25 -5.8125 C 30.320312 -5.007812 31.972656 -4.609375 34.203125 -4.609375 L 34.890625 -4.609375 C 35.648438 -4.609375 36.179688 -4.472656 36.484375 -4.203125 C 36.796875 -3.929688 36.992188 -3.257812 37.078125 -2.1875 C 37.078125 -1.5 36.898438 -0.90625 36.546875 -0.40625 C 36.203125 0.09375 35.6875 0.34375 35 0.34375 C 30.09375 0.113281 25.332031 0 20.71875 0 C 16.570312 0 12.007812 0.113281 7.03125 0.34375 Z M 7.03125 0.34375 "/></g></g></g><g fill="#ffffff" fill-opacity="1"><g transform="translate(710.7773, 827.238231)"><g><path d="M 6.90625 0.34375 C 6.21875 0.34375 5.695312 0.09375 5.34375 -0.40625 C 5 -0.90625 4.828125 -1.5 4.828125 -2.1875 C 4.910156 -3.34375 5.160156 -4.035156 5.578125 -4.265625 C 6.003906 -4.492188 6.71875 -4.609375 7.71875 -4.609375 C 9.9375 -4.609375 11.582031 -5.007812 12.65625 -5.8125 C 13.738281 -6.625 14.429688 -7.601562 14.734375 -8.75 C 15.046875 -9.90625 15.238281 -11.476562 15.3125 -13.46875 L 15.3125 -59.1875 C 15.238281 -61.175781 15.046875 -62.742188 14.734375 -63.890625 C 14.429688 -65.046875 13.738281 -66.023438 12.65625 -66.828125 C 11.582031 -67.640625 9.9375 -68.046875 7.71875 -68.046875 L 7.03125 -68.046875 C 6.332031 -68.046875 5.8125 -68.179688 5.46875 -68.453125 C 5.125 -68.722656 4.910156 -69.394531 4.828125 -70.46875 C 4.828125 -71.15625 5 -71.75 5.34375 -72.25 C 5.695312 -72.75 6.21875 -73 6.90625 -73 C 11.894531 -72.769531 16.460938 -72.65625 20.609375 -72.65625 C 25.210938 -72.65625 30.007812 -72.769531 35 -73 C 35.6875 -73 36.203125 -72.75 36.546875 -72.25 C 36.898438 -71.75 37.078125 -71.15625 37.078125 -70.46875 C 36.992188 -69.3125 36.738281 -68.617188 36.3125 -68.390625 C 35.894531 -68.160156 35.148438 -68.046875 34.078125 -68.046875 C 31.859375 -68.046875 30.207031 -67.640625 29.125 -66.828125 C 28.050781 -66.023438 27.378906 -65.03125 27.109375 -63.84375 C 26.847656 -62.65625 26.675781 -61.101562 26.59375 -59.1875 L 26.59375 -13.46875 C 26.675781 -11.550781 26.847656 -10 27.109375 -8.8125 C 27.378906 -7.625 28.050781 -6.625 29.125 -5.8125 C 30.207031 -5.007812 31.859375 -4.609375 34.078125 -4.609375 L 34.765625 -4.609375 C 35.535156 -4.609375 36.09375 -4.472656 36.4375 -4.203125 C 36.78125 -3.929688 36.992188 -3.257812 37.078125 -2.1875 C 37.078125 -1.5 36.898438 -0.90625 36.546875 -0.40625 C 36.203125 0.09375 35.6875 0.34375 35 0.34375 C 30.09375 0.113281 25.332031 0 20.71875 0 C 16.5 0 11.894531 0.113281 6.90625 0.34375 Z M 6.90625 0.34375 "/></g></g></g><g fill="#ffffff" fill-opacity="1"><g transform="translate(752.674695, 827.238231)"><g><path d="M 80.140625 23.03125 C 76.992188 23.03125 74.191406 22.609375 71.734375 21.765625 C 69.273438 20.921875 67.125 19.863281 65.28125 18.59375 C 63.4375 17.332031 61.054688 15.546875 58.140625 13.234375 C 55.835938 11.316406 53.785156 9.707031 51.984375 8.40625 C 50.179688 7.101562 48.242188 5.910156 46.171875 4.828125 C 43.710938 3.609375 40.796875 2.613281 37.421875 1.84375 C 29.359375 0 23.484375 -2.34375 19.796875 -5.1875 C 15.273438 -8.71875 11.765625 -13.128906 9.265625 -18.421875 C 6.773438 -23.722656 5.53125 -29.363281 5.53125 -35.34375 C 5.53125 -43.40625 7.351562 -50.429688 11 -56.421875 C 14.644531 -62.410156 19.304688 -66.992188 24.984375 -70.171875 C 30.660156 -73.359375 36.414062 -74.953125 42.25 -74.953125 C 49.625 -74.953125 56.148438 -73.207031 61.828125 -69.71875 C 67.503906 -66.226562 71.859375 -61.625 74.890625 -55.90625 C 77.929688 -50.1875 79.453125 -44.023438 79.453125 -37.421875 C 79.453125 -28.828125 77.28125 -21.320312 72.9375 -14.90625 C 68.601562 -8.5 62.867188 -3.875 55.734375 -1.03125 C 54.503906 -0.5 52.925781 -0.191406 51 -0.109375 L 51 0.109375 C 53.070312 0.335938 54.957031 0.878906 56.65625 1.734375 C 59.644531 3.191406 63.671875 5.757812 68.734375 9.4375 C 72.492188 12.125 75.523438 14.097656 77.828125 15.359375 C 80.140625 16.628906 82.40625 17.265625 84.625 17.265625 C 86.007812 17.117188 87.023438 16.679688 87.671875 15.953125 C 88.328125 15.222656 88.65625 14.316406 88.65625 13.234375 C 88.65625 11.398438 87.941406 9.691406 86.515625 8.109375 C 85.097656 6.535156 83.28125 5.710938 81.0625 5.640625 C 80.832031 4.410156 81.289062 3.21875 82.4375 2.0625 C 83.59375 0.914062 85.320312 0.34375 87.625 0.34375 C 88.625 0.34375 89.753906 0.6875 91.015625 1.375 C 92.285156 2.070312 93.398438 3.109375 94.359375 4.484375 C 95.316406 5.867188 95.796875 7.5625 95.796875 9.5625 C 95.796875 11.863281 95.007812 14.03125 93.4375 16.0625 C 91.863281 18.09375 89.867188 19.738281 87.453125 21 C 85.035156 22.269531 82.597656 22.945312 80.140625 23.03125 Z M 42.140625 -2.421875 C 47.359375 -2.421875 51.734375 -4.007812 55.265625 -7.1875 C 58.796875 -10.375 61.425781 -14.613281 63.15625 -19.90625 C 64.882812 -25.207031 65.75 -31.046875 65.75 -37.421875 C 65.75 -43.328125 64.863281 -48.753906 63.09375 -53.703125 C 61.332031 -58.660156 58.664062 -62.613281 55.09375 -65.5625 C 51.519531 -68.519531 47.203125 -70 42.140625 -70 C 34.460938 -70 28.703125 -66.753906 24.859375 -60.265625 C 21.023438 -53.785156 19.109375 -45.59375 19.109375 -35.6875 C 19.109375 -29.707031 19.972656 -24.179688 21.703125 -19.109375 C 23.429688 -14.046875 26.019531 -10 29.46875 -6.96875 C 32.925781 -3.9375 37.148438 -2.421875 42.140625 -2.421875 Z M 42.140625 -2.421875 "/></g></g></g><g fill="#ffffff" fill-opacity="1"><g transform="translate(837.505394, 827.238231)"><g><path d="M 41.328125 2.296875 C 35.421875 2.296875 30.375 1.257812 26.1875 -0.8125 C 22.007812 -2.882812 18.84375 -5.609375 16.6875 -8.984375 C 14.539062 -12.359375 13.46875 -16.003906 13.46875 -19.921875 L 13.46875 -59.1875 C 13.394531 -61.101562 13.222656 -62.65625 12.953125 -63.84375 C 12.679688 -65.03125 12.007812 -66.023438 10.9375 -66.828125 C 9.863281 -67.640625 8.210938 -68.046875 5.984375 -68.046875 L 5.296875 -68.046875 C 4.523438 -68.046875 3.984375 -68.179688 3.671875 -68.453125 C 3.367188 -68.722656 3.179688 -69.394531 3.109375 -70.46875 C 3.109375 -71.15625 3.28125 -71.75 3.625 -72.25 C 3.96875 -72.75 4.488281 -73 5.1875 -73 C 10.09375 -72.769531 14.617188 -72.65625 18.765625 -72.65625 C 23.453125 -72.65625 28.25 -72.769531 33.15625 -73 C 33.851562 -73 34.375 -72.75 34.71875 -72.25 C 35.0625 -71.75 35.234375 -71.15625 35.234375 -70.46875 C 35.160156 -69.394531 34.945312 -68.722656 34.59375 -68.453125 C 34.25 -68.179688 33.695312 -68.046875 32.9375 -68.046875 C 30.476562 -68.046875 28.671875 -67.660156 27.515625 -66.890625 C 26.367188 -66.128906 25.660156 -65.171875 25.390625 -64.015625 C 25.117188 -62.867188 24.945312 -61.257812 24.875 -59.1875 L 24.875 -23.265625 C 24.875 -17.960938 26.117188 -13.503906 28.609375 -9.890625 C 31.109375 -6.285156 35.960938 -4.484375 43.171875 -4.484375 C 50.234375 -4.484375 55.242188 -6.113281 58.203125 -9.375 C 61.160156 -12.644531 62.640625 -16.734375 62.640625 -21.640625 L 62.640625 -51.921875 C 62.640625 -57.148438 62.445312 -60.835938 62.0625 -62.984375 C 61.675781 -65.128906 60.90625 -66.507812 59.75 -67.125 C 58.601562 -67.738281 56.609375 -68.046875 53.765625 -68.046875 L 53.078125 -68.046875 C 52.390625 -68.046875 51.867188 -68.179688 51.515625 -68.453125 C 51.171875 -68.722656 50.960938 -69.394531 50.890625 -70.46875 C 50.890625 -71.15625 51.0625 -71.75 51.40625 -72.25 C 51.75 -72.75 52.269531 -73 52.96875 -73 C 57.957031 -72.769531 62.253906 -72.65625 65.859375 -72.65625 C 69.546875 -72.65625 73.84375 -72.769531 78.75 -73 C 79.445312 -73 79.96875 -72.75 80.3125 -72.25 C 80.65625 -71.75 80.828125 -71.15625 80.828125 -70.46875 C 80.753906 -69.394531 80.539062 -68.722656 80.1875 -68.453125 C 79.84375 -68.179688 79.289062 -68.046875 78.53125 -68.046875 C 75.457031 -68.046875 73.320312 -67.773438 72.125 -67.234375 C 70.9375 -66.703125 70.128906 -65.414062 69.703125 -63.375 C 69.285156 -61.34375 69.078125 -57.757812 69.078125 -52.625 L 69.078125 -20.5 C 69.078125 -15.351562 67.65625 -11.070312 64.8125 -7.65625 C 61.976562 -4.238281 58.429688 -1.722656 54.171875 -0.109375 C 49.910156 1.492188 45.628906 2.296875 41.328125 2.296875 Z M 41.328125 2.296875 "/></g></g></g><g fill="#ffffff" fill-opacity="1"><g transform="translate(920.379363, 827.238231)"><g><path d="M 6.90625 0.34375 C 6.289062 0.34375 5.8125 0.09375 5.46875 -0.40625 C 5.125 -0.90625 4.953125 -1.5 4.953125 -2.1875 C 5.023438 -3.34375 5.253906 -4.035156 5.640625 -4.265625 C 6.023438 -4.492188 6.753906 -4.609375 7.828125 -4.609375 C 10.054688 -4.609375 11.707031 -5.007812 12.78125 -5.8125 C 13.851562 -6.625 14.523438 -7.625 14.796875 -8.8125 C 15.066406 -10 15.238281 -11.550781 15.3125 -13.46875 L 15.3125 -59.1875 C 15.238281 -61.101562 15.066406 -62.65625 14.796875 -63.84375 C 14.523438 -65.03125 13.851562 -66.023438 12.78125 -66.828125 C 11.707031 -67.640625 10.054688 -68.046875 7.828125 -68.046875 L 7.140625 -68.046875 C 6.367188 -68.046875 5.828125 -68.179688 5.515625 -68.453125 C 5.210938 -68.722656 5.023438 -69.394531 4.953125 -70.46875 C 4.953125 -71.15625 5.125 -71.75 5.46875 -72.25 C 5.8125 -72.75 6.289062 -73 6.90625 -73 C 11.96875 -72.769531 16.535156 -72.65625 20.609375 -72.65625 L 56.765625 -72.65625 C 58.765625 -72.65625 59.765625 -71.734375 59.765625 -69.890625 L 60.109375 -53.765625 C 60.109375 -53.078125 59.757812 -52.519531 59.0625 -52.09375 C 58.375 -51.675781 57.6875 -51.46875 57 -51.46875 C 56.070312 -51.46875 55.265625 -51.640625 54.578125 -51.984375 C 53.890625 -52.328125 53.503906 -52.847656 53.421875 -53.546875 C 52.804688 -57.304688 52.132812 -60.160156 51.40625 -62.109375 C 50.675781 -64.066406 49.601562 -65.523438 48.1875 -66.484375 C 46.769531 -67.453125 44.753906 -67.972656 42.140625 -68.046875 L 26.71875 -68.046875 L 26.71875 -38.796875 L 47.546875 -38.796875 C 48.085938 -38.722656 48.507812 -38.4375 48.8125 -37.9375 C 49.125 -37.4375 49.28125 -36.84375 49.28125 -36.15625 C 49.28125 -35.539062 49.125 -35 48.8125 -34.53125 C 48.507812 -34.070312 48.085938 -33.84375 47.546875 -33.84375 L 26.71875 -33.84375 L 26.71875 -12.09375 C 26.863281 -10.476562 27.050781 -9.191406 27.28125 -8.234375 C 27.519531 -7.273438 28.210938 -6.410156 29.359375 -5.640625 C 30.515625 -4.867188 32.316406 -4.523438 34.765625 -4.609375 L 45.359375 -4.609375 C 48.046875 -4.679688 50.082031 -5.117188 51.46875 -5.921875 C 52.851562 -6.734375 53.945312 -7.984375 54.75 -9.671875 C 55.550781 -11.359375 56.53125 -14.125 57.6875 -17.96875 C 58.21875 -19.34375 59.519531 -19.878906 61.59375 -19.578125 C 62.363281 -19.421875 63.035156 -19.113281 63.609375 -18.65625 C 64.191406 -18.195312 64.441406 -17.617188 64.359375 -16.921875 L 62.0625 -2.421875 C 61.832031 -1.421875 61.484375 -0.765625 61.015625 -0.453125 C 60.554688 -0.148438 59.789062 0 58.71875 0 L 20.71875 0 C 16.570312 0 11.96875 0.113281 6.90625 0.34375 Z M 6.90625 0.34375 "/></g></g></g><g fill="#ffffff" fill-opacity="1"><g transform="translate(988.750416, 827.238231)"><g><path d="M 20.609375 0.34375 C 19.921875 0.34375 19.398438 0.09375 19.046875 -0.40625 C 18.703125 -0.90625 18.53125 -1.5 18.53125 -2.1875 C 18.613281 -3.34375 18.84375 -4.035156 19.21875 -4.265625 C 19.601562 -4.492188 20.335938 -4.609375 21.421875 -4.609375 C 23.640625 -4.609375 25.285156 -5.007812 26.359375 -5.8125 C 27.441406 -6.625 28.113281 -7.625 28.375 -8.8125 C 28.644531 -10 28.820312 -11.550781 28.90625 -13.46875 L 28.90625 -68.390625 L 20.953125 -68.390625 C 18.347656 -68.316406 16.332031 -67.757812 14.90625 -66.71875 C 13.488281 -65.6875 12.414062 -64.148438 11.6875 -62.109375 C 10.957031 -60.078125 10.320312 -57.179688 9.78125 -53.421875 C 9.707031 -52.804688 9.25 -52.304688 8.40625 -51.921875 C 7.5625 -51.546875 6.675781 -51.359375 5.75 -51.359375 C 5.0625 -51.359375 4.429688 -51.566406 3.859375 -51.984375 C 3.285156 -52.410156 3 -52.96875 3 -53.65625 L 3.34375 -69.890625 C 3.34375 -71.734375 4.378906 -72.65625 6.453125 -72.65625 L 62.75 -72.65625 C 64.75 -72.65625 65.75 -71.734375 65.75 -69.890625 L 66.203125 -53.65625 C 66.203125 -52.96875 65.894531 -52.410156 65.28125 -51.984375 C 64.664062 -51.566406 64.015625 -51.359375 63.328125 -51.359375 C 62.410156 -51.359375 61.546875 -51.546875 60.734375 -51.921875 C 59.929688 -52.304688 59.488281 -52.804688 59.40625 -53.421875 C 58.789062 -57.265625 58.140625 -60.179688 57.453125 -62.171875 C 56.765625 -64.171875 55.691406 -65.6875 54.234375 -66.71875 C 52.773438 -67.757812 50.738281 -68.316406 48.125 -68.390625 L 40.296875 -68.390625 L 40.296875 -13.46875 C 40.378906 -11.550781 40.550781 -10 40.8125 -8.8125 C 41.082031 -7.625 41.753906 -6.625 42.828125 -5.8125 C 43.898438 -5.007812 45.550781 -4.609375 47.78125 -4.609375 L 48.46875 -4.609375 C 49.164062 -4.609375 49.6875 -4.472656 50.03125 -4.203125 C 50.375 -3.929688 50.582031 -3.257812 50.65625 -2.1875 C 50.65625 -1.5 50.484375 -0.90625 50.140625 -0.40625 C 49.796875 0.09375 49.28125 0.34375 48.59375 0.34375 C 43.675781 0.113281 39.144531 0 35 0 C 30.394531 0 25.597656 0.113281 20.609375 0.34375 Z M 20.609375 0.34375 "/></g></g></g><g fill="#ffffff" fill-opacity="1"><g transform="translate(1057.812057, 827.238231)"><g><path d="M 20.609375 0.34375 C 19.921875 0.34375 19.398438 0.09375 19.046875 -0.40625 C 18.703125 -0.90625 18.53125 -1.5 18.53125 -2.1875 C 18.613281 -3.34375 18.84375 -4.035156 19.21875 -4.265625 C 19.601562 -4.492188 20.335938 -4.609375 21.421875 -4.609375 C 23.640625 -4.609375 25.285156 -5.007812 26.359375 -5.8125 C 27.441406 -6.625 28.113281 -7.625 28.375 -8.8125 C 28.644531 -10 28.820312 -11.550781 28.90625 -13.46875 L 28.90625 -68.390625 L 20.953125 -68.390625 C 18.347656 -68.316406 16.332031 -67.757812 14.90625 -66.71875 C 13.488281 -65.6875 12.414062 -64.148438 11.6875 -62.109375 C 10.957031 -60.078125 10.320312 -57.179688 9.78125 -53.421875 C 9.707031 -52.804688 9.25 -52.304688 8.40625 -51.921875 C 7.5625 -51.546875 6.675781 -51.359375 5.75 -51.359375 C 5.0625 -51.359375 4.429688 -51.566406 3.859375 -51.984375 C 3.285156 -52.410156 3 -52.96875 3 -53.65625 L 3.34375 -69.890625 C 3.34375 -71.734375 4.378906 -72.65625 6.453125 -72.65625 L 62.75 -72.65625 C 64.75 -72.65625 65.75 -71.734375 65.75 -69.890625 L 66.203125 -53.65625 C 66.203125 -52.96875 65.894531 -52.410156 65.28125 -51.984375 C 64.664062 -51.566406 64.015625 -51.359375 63.328125 -51.359375 C 62.410156 -51.359375 61.546875 -51.546875 60.734375 -51.921875 C 59.929688 -52.304688 59.488281 -52.804688 59.40625 -53.421875 C 58.789062 -57.265625 58.140625 -60.179688 57.453125 -62.171875 C 56.765625 -64.171875 55.691406 -65.6875 54.234375 -66.71875 C 52.773438 -67.757812 50.738281 -68.316406 48.125 -68.390625 L 40.296875 -68.390625 L 40.296875 -13.46875 C 40.378906 -11.550781 40.550781 -10 40.8125 -8.8125 C 41.082031 -7.625 41.753906 -6.625 42.828125 -5.8125 C 43.898438 -5.007812 45.550781 -4.609375 47.78125 -4.609375 L 48.46875 -4.609375 C 49.164062 -4.609375 49.6875 -4.472656 50.03125 -4.203125 C 50.375 -3.929688 50.582031 -3.257812 50.65625 -2.1875 C 50.65625 -1.5 50.484375 -0.90625 50.140625 -0.40625 C 49.796875 0.09375 49.28125 0.34375 48.59375 0.34375 C 43.675781 0.113281 39.144531 0 35 0 C 30.394531 0 25.597656 0.113281 20.609375 0.34375 Z M 20.609375 0.34375 "/></g></g></g><g fill="#ffffff" fill-opacity="1"><g transform="translate(1126.873697, 827.238231)"><g><path d="M 6.90625 0.34375 C 6.21875 0.34375 5.695312 0.09375 5.34375 -0.40625 C 5 -0.90625 4.828125 -1.5 4.828125 -2.1875 C 4.910156 -3.34375 5.160156 -4.035156 5.578125 -4.265625 C 6.003906 -4.492188 6.71875 -4.609375 7.71875 -4.609375 C 9.9375 -4.609375 11.582031 -5.007812 12.65625 -5.8125 C 13.738281 -6.625 14.429688 -7.601562 14.734375 -8.75 C 15.046875 -9.90625 15.238281 -11.476562 15.3125 -13.46875 L 15.3125 -59.1875 C 15.238281 -61.175781 15.046875 -62.742188 14.734375 -63.890625 C 14.429688 -65.046875 13.738281 -66.023438 12.65625 -66.828125 C 11.582031 -67.640625 9.9375 -68.046875 7.71875 -68.046875 L 7.03125 -68.046875 C 6.332031 -68.046875 5.8125 -68.179688 5.46875 -68.453125 C 5.125 -68.722656 4.910156 -69.394531 4.828125 -70.46875 C 4.828125 -71.15625 5 -71.75 5.34375 -72.25 C 5.695312 -72.75 6.21875 -73 6.90625 -73 C 11.894531 -72.769531 16.460938 -72.65625 20.609375 -72.65625 C 25.210938 -72.65625 30.007812 -72.769531 35 -73 C 35.6875 -73 36.203125 -72.75 36.546875 -72.25 C 36.898438 -71.75 37.078125 -71.15625 37.078125 -70.46875 C 36.992188 -69.3125 36.738281 -68.617188 36.3125 -68.390625 C 35.894531 -68.160156 35.148438 -68.046875 34.078125 -68.046875 C 31.859375 -68.046875 30.207031 -67.640625 29.125 -66.828125 C 28.050781 -66.023438 27.378906 -65.03125 27.109375 -63.84375 C 26.847656 -62.65625 26.675781 -61.101562 26.59375 -59.1875 L 26.59375 -13.46875 C 26.675781 -11.550781 26.847656 -10 27.109375 -8.8125 C 27.378906 -7.625 28.050781 -6.625 29.125 -5.8125 C 30.207031 -5.007812 31.859375 -4.609375 34.078125 -4.609375 L 34.765625 -4.609375 C 35.535156 -4.609375 36.09375 -4.472656 36.4375 -4.203125 C 36.78125 -3.929688 36.992188 -3.257812 37.078125 -2.1875 C 37.078125 -1.5 36.898438 -0.90625 36.546875 -0.40625 C 36.203125 0.09375 35.6875 0.34375 35 0.34375 C 30.09375 0.113281 25.332031 0 20.71875 0 C 16.5 0 11.894531 0.113281 6.90625 0.34375 Z M 6.90625 0.34375 "/></g></g></g><g fill="#ffffff" fill-opacity="1"><g transform="translate(113.548052, 743.874219)"><g><path d="M 4.03125 0.203125 C 3.664062 0.203125 3.382812 0.0546875 3.1875 -0.234375 C 2.988281 -0.523438 2.890625 -0.875 2.890625 -1.28125 C 2.929688 -1.945312 3.0625 -2.347656 3.28125 -2.484375 C 3.507812 -2.617188 3.9375 -2.6875 4.5625 -2.6875 C 5.863281 -2.6875 6.828125 -2.921875 7.453125 -3.390625 C 8.078125 -3.859375 8.46875 -4.4375 8.625 -5.125 C 8.78125 -5.820312 8.882812 -6.734375 8.9375 -7.859375 L 8.9375 -34.515625 C 8.882812 -35.640625 8.78125 -36.546875 8.625 -37.234375 C 8.46875 -37.929688 8.078125 -38.515625 7.453125 -38.984375 C 6.828125 -39.453125 5.863281 -39.6875 4.5625 -39.6875 L 4.15625 -39.6875 C 3.707031 -39.6875 3.394531 -39.765625 3.21875 -39.921875 C 3.039062 -40.078125 2.929688 -40.46875 2.890625 -41.09375 C 2.890625 -41.5 2.988281 -41.847656 3.1875 -42.140625 C 3.382812 -42.429688 3.664062 -42.578125 4.03125 -42.578125 C 6.988281 -42.441406 9.648438 -42.375 12.015625 -42.375 L 22.5 -42.375 C 26.789062 -42.375 30.691406 -41.507812 34.203125 -39.78125 C 37.722656 -38.0625 40.5 -35.585938 42.53125 -32.359375 C 44.570312 -29.140625 45.59375 -25.335938 45.59375 -20.953125 C 45.59375 -16.390625 44.441406 -12.53125 42.140625 -9.375 C 39.835938 -6.21875 36.835938 -3.863281 33.140625 -2.3125 C 29.441406 -0.769531 25.488281 0 21.28125 0 L 12.015625 0 C 9.648438 0 6.988281 0.0664062 4.03125 0.203125 Z M 22.296875 -2.484375 C 27.535156 -2.484375 31.375 -4.101562 33.8125 -7.34375 C 36.25 -10.59375 37.46875 -15.128906 37.46875 -20.953125 C 37.46875 -24.617188 36.804688 -27.894531 35.484375 -30.78125 C 34.171875 -33.675781 32.257812 -35.925781 29.75 -37.53125 C 27.238281 -39.144531 24.257812 -39.953125 20.8125 -39.953125 L 15.578125 -39.890625 L 15.578125 -7.046875 C 15.578125 -5.304688 16.101562 -4.109375 17.15625 -3.453125 C 18.207031 -2.804688 19.921875 -2.484375 22.296875 -2.484375 Z M 22.296875 -2.484375 "/></g></g></g><g fill="#ffffff" fill-opacity="1"><g transform="translate(162.426767, 743.874219)"><g><path d="M 4.09375 0.203125 C 3.6875 0.203125 3.382812 0.0546875 3.1875 -0.234375 C 2.988281 -0.523438 2.890625 -0.875 2.890625 -1.28125 C 2.929688 -1.945312 3.0625 -2.347656 3.28125 -2.484375 C 3.507812 -2.617188 3.9375 -2.6875 4.5625 -2.6875 C 5.863281 -2.6875 6.828125 -2.921875 7.453125 -3.390625 C 8.078125 -3.859375 8.46875 -4.4375 8.625 -5.125 C 8.78125 -5.820312 8.882812 -6.734375 8.9375 -7.859375 L 8.9375 -34.453125 C 8.882812 -35.617188 8.78125 -36.535156 8.625 -37.203125 C 8.46875 -37.878906 8.078125 -38.460938 7.453125 -38.953125 C 6.828125 -39.441406 5.863281 -39.6875 4.5625 -39.6875 L 4.15625 -39.6875 C 3.707031 -39.6875 3.394531 -39.765625 3.21875 -39.921875 C 3.039062 -40.078125 2.929688 -40.46875 2.890625 -41.09375 C 2.890625 -41.5 2.988281 -41.847656 3.1875 -42.140625 C 3.382812 -42.429688 3.6875 -42.578125 4.09375 -42.578125 C 7.007812 -42.441406 9.675781 -42.375 12.09375 -42.375 L 23.640625 -42.375 C 27.085938 -42.332031 29.960938 -41.785156 32.265625 -40.734375 C 34.578125 -39.679688 36.269531 -38.335938 37.34375 -36.703125 C 38.414062 -35.066406 38.953125 -33.304688 38.953125 -31.421875 C 38.953125 -28.960938 37.976562 -26.703125 36.03125 -24.640625 C 34.082031 -22.585938 31.429688 -21.113281 28.078125 -20.21875 L 29.21875 -18.40625 C 31.09375 -15.351562 32.789062 -12.738281 34.3125 -10.5625 C 35.832031 -8.394531 37.488281 -6.375 39.28125 -4.5 C 40.539062 -3.46875 41.882812 -2.863281 43.3125 -2.6875 C 43.40625 -2.6875 43.609375 -2.675781 43.921875 -2.65625 C 44.234375 -2.632812 44.488281 -2.507812 44.6875 -2.28125 C 44.894531 -2.0625 45 -1.726562 45 -1.28125 C 45 -0.875 44.894531 -0.523438 44.6875 -0.234375 C 44.488281 0.0546875 44.1875 0.203125 43.78125 0.203125 L 42.046875 0.140625 C 40.066406 0.046875 38.628906 0 37.734375 0 C 35.953125 -0.351562 34.421875 -0.988281 33.140625 -1.90625 C 31.867188 -2.832031 30.601562 -4.144531 29.34375 -5.84375 C 28.050781 -7.539062 26.238281 -10.316406 23.90625 -14.171875 L 22.703125 -16.125 C 22.023438 -17.144531 21.375 -17.84375 20.75 -18.21875 C 20.125 -18.601562 19.050781 -18.796875 17.53125 -18.796875 L 15.578125 -18.796875 L 15.578125 -7.859375 C 15.617188 -6.734375 15.71875 -5.820312 15.875 -5.125 C 16.039062 -4.4375 16.4375 -3.859375 17.0625 -3.390625 C 17.6875 -2.921875 18.648438 -2.6875 19.953125 -2.6875 L 20.34375 -2.6875 C 20.75 -2.6875 21.050781 -2.609375 21.25 -2.453125 C 21.457031 -2.296875 21.582031 -1.90625 21.625 -1.28125 C 21.625 -0.875 21.519531 -0.523438 21.3125 -0.234375 C 21.113281 0.0546875 20.816406 0.203125 20.421875 0.203125 C 17.554688 0.0664062 14.753906 0 12.015625 0 C 9.648438 0 7.007812 0.0664062 4.09375 0.203125 Z M 21.484375 -21.421875 C 28.160156 -21.421875 31.5 -24.554688 31.5 -30.828125 C 31.5 -33.378906 30.625 -35.523438 28.875 -37.265625 C 27.132812 -39.015625 24.269531 -39.890625 20.28125 -39.890625 C 18.976562 -39.890625 17.988281 -39.734375 17.3125 -39.421875 C 16.644531 -39.109375 16.1875 -38.570312 15.9375 -37.8125 C 15.695312 -37.050781 15.578125 -35.882812 15.578125 -34.3125 L 15.578125 -21.421875 Z M 21.484375 -21.421875 "/></g></g></g><g fill="#ffffff" fill-opacity="1"><g transform="translate(207.478449, 743.874219)"><g><path d="M 0.40625 0.203125 C 0 0.203125 -0.300781 0.0546875 -0.5 -0.234375 C -0.707031 -0.523438 -0.8125 -0.875 -0.8125 -1.28125 C -0.757812 -1.945312 -0.617188 -2.347656 -0.390625 -2.484375 C -0.171875 -2.617188 0.09375 -2.6875 0.40625 -2.6875 C 0.71875 -2.6875 0.914062 -2.6875 1 -2.6875 C 2.34375 -2.6875 3.328125 -3.03125 3.953125 -3.71875 C 4.585938 -4.414062 5.09375 -5.203125 5.46875 -6.078125 C 5.851562 -6.953125 6.113281 -7.546875 6.25 -7.859375 L 18 -35.65625 C 18.269531 -36.332031 18.40625 -36.867188 18.40625 -37.265625 C 18.40625 -38.078125 18.085938 -38.660156 17.453125 -39.015625 C 16.828125 -39.378906 15.957031 -39.671875 14.84375 -39.890625 C 14.082031 -40.023438 13.609375 -40.160156 13.421875 -40.296875 C 13.242188 -40.429688 13.15625 -40.8125 13.15625 -41.4375 C 13.15625 -41.96875 13.300781 -42.320312 13.59375 -42.5 C 13.882812 -42.6875 14.34375 -42.78125 14.96875 -42.78125 C 17.207031 -42.78125 18.988281 -42.609375 20.3125 -42.265625 C 21.632812 -41.929688 22.785156 -41.257812 23.765625 -40.25 C 24.753906 -39.25 25.675781 -37.71875 26.53125 -35.65625 L 37.8125 -7.859375 C 38.476562 -6.160156 39.125 -4.882812 39.75 -4.03125 C 40.382812 -3.175781 41.328125 -2.726562 42.578125 -2.6875 L 42.984375 -2.6875 C 43.429688 -2.6875 43.742188 -2.609375 43.921875 -2.453125 C 44.097656 -2.296875 44.207031 -1.90625 44.25 -1.28125 C 44.25 -0.875 44.148438 -0.523438 43.953125 -0.234375 C 43.753906 0.0546875 43.453125 0.203125 43.046875 0.203125 C 40.179688 0.0664062 37.71875 0 35.65625 0 C 32.96875 0 30.191406 0.0664062 27.328125 0.203125 C 26.929688 0.203125 26.628906 0.0546875 26.421875 -0.234375 C 26.222656 -0.523438 26.125 -0.875 26.125 -1.28125 C 26.164062 -1.90625 26.273438 -2.296875 26.453125 -2.453125 C 26.640625 -2.609375 26.957031 -2.6875 27.40625 -2.6875 C 28.925781 -2.6875 30 -2.832031 30.625 -3.125 C 31.25 -3.414062 31.5625 -3.941406 31.5625 -4.703125 C 31.5625 -5.285156 31.289062 -6.335938 30.75 -7.859375 L 28.46875 -13.4375 L 11.890625 -13.4375 C 10.765625 -10.65625 10.125 -9.039062 9.96875 -8.59375 C 9.8125 -8.144531 9.734375 -7.898438 9.734375 -7.859375 C 9.203125 -6.160156 8.9375 -5.0625 8.9375 -4.5625 C 8.9375 -3.800781 9.269531 -3.296875 9.9375 -3.046875 C 10.613281 -2.804688 11.890625 -2.6875 13.765625 -2.6875 L 14.171875 -2.6875 C 14.617188 -2.6875 14.929688 -2.609375 15.109375 -2.453125 C 15.285156 -2.296875 15.398438 -1.90625 15.453125 -1.28125 C 15.453125 -0.875 15.347656 -0.523438 15.140625 -0.234375 C 14.941406 0.0546875 14.640625 0.203125 14.234375 0.203125 C 11.367188 0.0664062 8.929688 0 6.921875 0 C 5.484375 0 3.3125 0.0664062 0.40625 0.203125 Z M 13.15625 -16.3125 L 27.265625 -16.3125 L 20.484375 -33.578125 L 20.28125 -33.578125 Z M 13.15625 -16.3125 "/></g></g></g><g fill="#ffffff" fill-opacity="1"><g transform="translate(251.321574, 743.874219)"><g><path d="M 7.390625 0.8125 C 6.179688 0.8125 5.171875 0.421875 4.359375 -0.359375 C 3.554688 -1.148438 3.15625 -2.171875 3.15625 -3.421875 C 3.15625 -4.585938 3.554688 -5.570312 4.359375 -6.375 C 5.171875 -7.1875 6.203125 -7.59375 7.453125 -7.59375 C 8.660156 -7.59375 9.675781 -7.1875 10.5 -6.375 C 11.332031 -5.570312 11.75 -4.585938 11.75 -3.421875 C 11.75 -2.171875 11.332031 -1.148438 10.5 -0.359375 C 9.675781 0.421875 8.640625 0.8125 7.390625 0.8125 Z M 7.390625 0.8125 "/></g></g></g></svg>