<svg xmlns="http://www.w3.org/2000/svg" xmlns:xlink="http://www.w3.org/1999/xlink" width="1900" zoomAndPan="magnify" viewBox="0 0 1425 749.999995" height="1000" preserveAspectRatio="xMidYMid meet" version="1.0"><defs><g/><clipPath id="e7de62769a"><path d="M 0 437.125 L 552 437.125 L 552 625 L 0 625 Z M 0 437.125 " clip-rule="nonzero"/></clipPath><clipPath id="222d34f4d7"><path d="M 1113 301 L 1425 301 L 1425 456 L 1113 456 Z M 1113 301 " clip-rule="nonzero"/></clipPath><clipPath id="9c11c4fe32"><path d="M 1108.515625 311.789062 L 1420.339844 301.308594 L 1425.277344 448.226562 L 1113.453125 458.707031 Z M 1108.515625 311.789062 " clip-rule="nonzero"/></clipPath><clipPath id="20785c7ce3"><path d="M 1108.515625 311.789062 L 1585.25 295.765625 L 1590.1875 442.683594 L 1113.453125 458.707031 Z M 1108.515625 311.789062 " clip-rule="nonzero"/></clipPath><clipPath id="82b565bf8c"><path d="M 178 340 L 275 340 L 275 487 L 178 487 Z M 178 340 " clip-rule="nonzero"/></clipPath><clipPath id="0cad52168e"><path d="M 168.214844 258.890625 L 454.464844 296.816406 L 421.957031 542.171875 L 135.707031 504.25 Z M 168.214844 258.890625 " clip-rule="nonzero"/></clipPath><clipPath id="3240fb4edd"><path d="M 168.214844 258.890625 L 454.464844 296.816406 L 421.957031 542.171875 L 135.707031 504.25 Z M 168.214844 258.890625 " clip-rule="nonzero"/></clipPath><clipPath id="e7645c9631"><path d="M 274 287 L 404 287 L 404 504 L 274 504 Z M 274 287 " clip-rule="nonzero"/></clipPath><clipPath id="d25cdcb168"><path d="M 168.214844 258.890625 L 454.464844 296.816406 L 421.957031 542.171875 L 135.707031 504.25 Z M 168.214844 258.890625 " clip-rule="nonzero"/></clipPath><clipPath id="c51ed87d00"><path d="M 168.214844 258.890625 L 454.464844 296.816406 L 421.957031 542.171875 L 135.707031 504.25 Z M 168.214844 258.890625 " clip-rule="nonzero"/></clipPath></defs><g fill="#ffffff" fill-opacity="1"><g transform="translate(473.450247, 560.115552)"><g><path d="M 333.191406 -473.554688 C 325.695312 -491.269531 314.113281 -502.171875 297.761719 -506.261719 C 276.636719 -511.710938 252.789062 -506.261719 228.261719 -494.675781 L 228.261719 -493.996094 C 175.792969 -468.101562 122.648438 -410.1875 91.304688 -358.402344 C 103.570312 -399.964844 117.878906 -438.804688 134.230469 -474.234375 C 140.363281 -487.179688 139.679688 -502.171875 132.867188 -515.117188 L 128.097656 -524.65625 C 125.371094 -528.746094 120.601562 -532.152344 115.152344 -532.152344 C 110.382812 -531.472656 105.613281 -528.746094 102.886719 -523.976562 C 44.289062 -408.824219 6.8125 -226.214844 0 -22.484375 C -0.679688 -9.539062 6.8125 2.726562 18.398438 7.496094 L 23.847656 10.21875 C 25.210938 10.902344 27.253906 11.582031 29.300781 11.582031 C 32.023438 11.582031 34.75 10.902344 36.792969 9.539062 C 40.882812 6.8125 43.609375 2.042969 43.609375 -2.726562 C 44.289062 -111.746094 55.871094 -212.589844 76.996094 -303.210938 L 76.996094 -303.890625 C 91.984375 -358.402344 164.890625 -451.070312 232.347656 -485.136719 C 233.03125 -485.136719 272.550781 -498.765625 289.582031 -480.367188 C 305.9375 -464.015625 298.441406 -342.050781 226.898438 -205.09375 C 210.542969 -173.75 192.828125 -145.132812 175.113281 -120.601562 C 123.328125 -120.601562 84.488281 -99.480469 68.820312 -76.996094 C 58.597656 -61.324219 57.234375 -44.96875 64.730469 -29.980469 C 71.542969 -16.351562 83.128906 -9.539062 97.4375 -9.539062 L 98.800781 -9.539062 C 134.230469 -9.539062 184.652344 -48.378906 228.941406 -106.976562 L 229.621094 -106.976562 C 295.035156 -106.976562 332.511719 -130.824219 334.554688 -132.1875 C 336.597656 -133.550781 337.28125 -136.957031 335.917969 -139 C 334.554688 -141.726562 331.148438 -142.40625 329.101562 -140.363281 C 328.421875 -140.363281 295.035156 -119.242188 236.4375 -117.195312 C 245.292969 -129.460938 253.46875 -141.726562 261.648438 -155.351562 C 311.386719 -240.523438 363.171875 -402.691406 333.191406 -473.554688 Z M 141.726562 -79.039062 C 117.195312 -51.785156 94.03125 -36.113281 80.402344 -37.476562 C 77.675781 -37.476562 72.90625 -38.839844 70.179688 -46.332031 C 68.820312 -55.871094 72.90625 -64.730469 76.996094 -70.863281 C 90.621094 -90.621094 123.328125 -109.019531 167.617188 -110.382812 C 158.761719 -98.800781 150.582031 -88.578125 141.726562 -79.039062 Z M 141.726562 -79.039062 "/></g></g></g><g fill="#ffffff" fill-opacity="1"><g transform="translate(796.358947, 560.115552)"><g><path d="M 279.363281 -531.472656 C 246.65625 -529.425781 189.421875 -498.765625 134.910156 -436.761719 C 89.261719 -384.976562 29.980469 -291.628906 4.769531 -144.449219 C -12.265625 -43.609375 20.441406 -6.132812 51.101562 6.8125 C 62.6875 12.265625 76.3125 14.988281 90.621094 14.988281 C 110.382812 14.988281 133.550781 10.21875 157.398438 0.679688 L 164.210938 -2.726562 L 183.96875 -11.582031 C 235.753906 -38.15625 286.175781 -81.765625 325.695312 -133.550781 C 327.742188 -135.59375 327.058594 -138.320312 325.015625 -140.363281 C 322.972656 -141.726562 319.5625 -141.726562 318.199219 -139.679688 C 272.550781 -80.402344 215.3125 -35.429688 162.167969 -12.265625 C 161.484375 -12.265625 160.804688 -12.265625 160.804688 -11.582031 C 139.679688 -2.042969 108.339844 0 83.808594 -19.078125 C 57.234375 -38.839844 47.695312 -76.996094 57.234375 -126.734375 C 85.171875 -282.089844 145.8125 -373.390625 191.464844 -422.449219 C 241.886719 -476.28125 290.265625 -496.039062 300.484375 -495.359375 C 318.199219 -493.3125 320.925781 -469.464844 321.609375 -465.378906 C 321.609375 -433.351562 310.023438 -395.878906 289.582031 -372.03125 C 288.222656 -369.984375 288.222656 -367.261719 290.265625 -365.214844 C 292.308594 -363.171875 295.714844 -363.851562 297.761719 -365.898438 C 319.5625 -391.109375 331.828125 -430.628906 331.148438 -464.695312 L 331.148438 -465.378906 C 331.148438 -481.050781 328.421875 -495.359375 322.289062 -506.941406 C 313.429688 -524.65625 298.441406 -532.832031 279.363281 -531.472656 Z M 279.363281 -531.472656 "/></g></g></g><g clip-path="url(#e7de62769a)"><path fill="#ffffff" d="M 61.203125 573.152344 C 68.308594 575.703125 74.90625 578.214844 81.632812 580.425781 C 88.359375 582.636719 93.722656 586.933594 98.871094 591.484375 C 102.53125 594.71875 103.722656 598.96875 102.019531 603.691406 C 100.914062 606.796875 99.722656 609.988281 98.148438 612.878906 C 92.359375 623.429688 82.738281 626.875 71.246094 623.726562 C 56.265625 619.640625 51.667969 613.773438 49.070312 595.398438 C 48.519531 591.527344 48.988281 587.527344 48.988281 582.933594 C 46.390625 583.273438 43.707031 583.316406 41.15625 583.957031 C 31.152344 586.378906 21.660156 589.738281 13.699219 596.800781 C 10.933594 599.226562 7.019531 600.5 3.484375 601.863281 C 1.144531 602.757812 0.464844 601.820312 1.273438 599.394531 C 3.273438 593.226562 7.273438 587.824219 12.636719 584.125 C 24.128906 576.085938 36.472656 570.515625 50.945312 571.195312 C 51.753906 571.238281 53.074219 570.386719 53.371094 569.621094 C 60.945312 551.585938 72.480469 536.484375 85.890625 522.320312 C 101.171875 506.160156 119.558594 493.183594 139.945312 484.210938 C 157.652344 476.339844 175.53125 467.917969 194.554688 463.835938 C 223.753906 457.582031 253.25 457.15625 282.835938 462.132812 C 313.652344 467.28125 343.871094 474.894531 374.175781 482.125 C 394.265625 486.933594 414.398438 491.910156 435.042969 493.101562 C 450.921875 494.035156 466.925781 493.78125 482.84375 493.269531 C 495.527344 492.886719 508.210938 491.824219 520.808594 490.121094 C 535.921875 488.082031 549.796875 481.785156 563.757812 476.085938 C 581.933594 468.726562 596.703125 457.113281 607.472656 440.613281 C 608.621094 438.867188 609.855469 437.125 612.195312 438.101562 C 614.535156 439.082031 614.28125 441.378906 613.8125 443.25 C 612.535156 448.863281 609.769531 454.050781 605.8125 458.261719 C 594.660156 470.003906 582.402344 480.167969 567.121094 486.25 C 552.222656 492.207031 537.582031 498.925781 521.535156 501.265625 C 511.148438 502.753906 500.636719 503.863281 490.121094 504.414062 C 474.628906 505.179688 459.09375 505.859375 443.554688 505.5625 C 420.613281 505.136719 398.3125 499.90625 376.050781 494.886719 C 351.191406 489.355469 326.460938 482.933594 301.519531 477.660156 C 281.046875 473.320312 260.359375 469.789062 239.207031 470.472656 C 224.308594 470.980469 209.027344 470.554688 194.855469 475.066406 C 165.738281 484.335938 135.988281 492.757812 111.046875 511.519531 C 91.296875 526.363281 74.355469 543.929688 63.757812 566.730469 C 62.777344 568.769531 62.097656 570.941406 61.203125 573.152344 Z M 58.394531 584.761719 C 56.734375 591.570312 58.011719 597.609375 59.925781 603.605469 C 62.480469 611.433594 69.84375 616.238281 78.527344 615.855469 C 86.058594 615.515625 90.488281 611.304688 92.570312 602.457031 C 92.613281 602.375 92.699219 602.246094 92.65625 602.160156 C 92.1875 600.925781 92.105469 599.226562 91.210938 598.503906 C 81.761719 590.761719 70.394531 587.484375 58.394531 584.761719 Z M 58.394531 584.761719 " fill-opacity="1" fill-rule="nonzero"/></g><g clip-path="url(#222d34f4d7)"><g clip-path="url(#9c11c4fe32)"><g clip-path="url(#20785c7ce3)"><path fill="#ffffff" d="M 1159.5 415.515625 C 1165.078125 417.308594 1170.257812 419.078125 1175.527344 420.617188 C 1180.796875 422.152344 1185.066406 425.339844 1189.175781 428.730469 C 1192.097656 431.136719 1193.132812 434.398438 1191.9375 438.097656 C 1191.160156 440.53125 1190.320312 443.03125 1189.171875 445.3125 C 1184.960938 453.632812 1177.59375 456.550781 1168.601562 454.414062 C 1156.882812 451.640625 1153.167969 447.214844 1150.675781 433.054688 C 1150.144531 430.074219 1150.40625 426.964844 1150.285156 423.410156 C 1148.28125 423.738281 1146.203125 423.84375 1144.242188 424.402344 C 1136.550781 426.542969 1129.28125 429.390625 1123.292969 435.066406 C 1121.210938 437.015625 1118.210938 438.105469 1115.507812 439.25 C 1113.714844 440.003906 1113.164062 439.296875 1113.726562 437.398438 C 1115.117188 432.570312 1118.078125 428.28125 1122.140625 425.277344 C 1130.839844 418.753906 1140.261719 414.117188 1151.496094 414.269531 C 1152.125 414.28125 1153.125 413.585938 1153.335938 412.988281 C 1158.742188 398.824219 1167.289062 386.832031 1177.3125 375.515625 C 1188.738281 362.605469 1202.65625 352.082031 1218.226562 344.601562 C 1231.746094 338.046875 1245.386719 331.058594 1260.027344 327.402344 C 1282.5 321.800781 1305.351562 320.703125 1328.414062 323.785156 C 1352.433594 326.96875 1376.058594 332.074219 1399.738281 336.882812 C 1415.4375 340.082031 1431.175781 343.410156 1447.207031 343.796875 C 1459.539062 344.105469 1471.9375 343.492188 1484.265625 342.683594 C 1494.085938 342.054688 1503.890625 340.902344 1513.613281 339.257812 C 1525.273438 337.28125 1535.867188 332.046875 1546.539062 327.269531 C 1560.4375 321.097656 1571.582031 311.722656 1579.5 298.664062 C 1580.347656 297.285156 1581.257812 295.902344 1583.097656 296.597656 C 1584.9375 297.292969 1584.800781 299.078125 1584.488281 300.539062 C 1583.644531 304.921875 1581.632812 309.011719 1578.675781 312.375 C 1570.335938 321.753906 1561.097656 329.945312 1549.410156 335.050781 C 1538.019531 340.050781 1526.84375 345.636719 1514.464844 347.867188 C 1506.453125 349.289062 1498.332031 350.417969 1490.195312 351.121094 C 1478.207031 352.117188 1466.179688 353.050781 1454.128906 353.222656 C 1436.335938 353.492188 1418.910156 350.023438 1401.523438 346.714844 C 1382.109375 343.082031 1362.773438 338.753906 1343.300781 335.320312 C 1327.320312 332.492188 1311.191406 330.300781 1294.8125 331.375 C 1283.277344 332.160156 1271.421875 332.230469 1260.550781 336.089844 C 1238.222656 344.027344 1215.378906 351.324219 1196.53125 366.496094 C 1181.609375 378.503906 1168.933594 392.546875 1161.3125 410.476562 C 1160.605469 412.082031 1160.136719 413.78125 1159.5 415.515625 Z M 1157.625 424.578125 C 1156.515625 429.894531 1157.660156 434.535156 1159.304688 439.128906 C 1161.484375 445.121094 1167.320312 448.652344 1174.039062 448.128906 C 1179.871094 447.671875 1183.191406 444.292969 1184.578125 437.390625 C 1184.609375 437.324219 1184.671875 437.222656 1184.636719 437.15625 C 1184.242188 436.214844 1184.132812 434.898438 1183.421875 434.363281 C 1175.894531 428.613281 1167 426.375 1157.625 424.578125 Z M 1157.625 424.578125 " fill-opacity="1" fill-rule="nonzero"/></g></g></g><g clip-path="url(#82b565bf8c)"><g clip-path="url(#0cad52168e)"><g clip-path="url(#3240fb4edd)"><path fill="#ffffff" d="M 195.933594 340.664062 C 195.933594 340.664062 204.300781 348.632812 212.101562 347.949219 C 212.101562 347.949219 223.628906 341.761719 229.15625 342.0625 C 229.15625 342.0625 241.203125 351.375 254.304688 346.253906 C 254.304688 346.253906 258.515625 353.242188 257.457031 361.246094 C 256.03125 368.777344 245.148438 373.335938 243.582031 385.132812 C 242.386719 397.410156 245.847656 413.300781 248.242188 424.335938 C 250.15625 435.738281 252.042969 479.71875 203.035156 461.652344 C 229.761719 479.769531 260.253906 466.230469 266.769531 433.222656 C 268.808594 421.058594 275.769531 426.699219 274.90625 436.445312 C 267.023438 518.578125 136.328125 493.113281 192.636719 401.109375 C 201.382812 386.832031 201.398438 370.542969 197.183594 363.550781 C 192.96875 356.5625 194.082031 341.703125 195.933594 340.664062 Z M 233.738281 349.53125 C 234.945312 350.117188 235.617188 351.496094 235.449219 352.757812 C 235.226562 354.445312 233.375 355.484375 231.691406 355.261719 C 230.007812 355.039062 228.914062 353.609375 229.136719 351.921875 C 229.25 351.078125 229.78125 350.292969 230.734375 349.5625 C 230.621094 350.402344 231.410156 350.9375 231.828125 350.992188 C 233.09375 351.160156 233.570312 350.792969 233.679688 349.953125 C 233.738281 349.53125 233.738281 349.53125 233.738281 349.53125 Z M 233.738281 349.53125 " fill-opacity="1" fill-rule="evenodd"/></g></g></g><g clip-path="url(#e7645c9631)"><g clip-path="url(#d25cdcb168)"><g clip-path="url(#c51ed87d00)"><path fill="#ffffff" d="M 343.71875 482.863281 C 307.546875 481.070312 288.753906 451.570312 290.296875 414.046875 C 290.847656 396.96875 277.777344 405.097656 277.332031 414.902344 C 273.414062 467.117188 307.363281 498.625 349.203125 502.882812 C 423.992188 510.648438 408.4375 379.105469 377.765625 339.027344 C 377.765625 339.027344 367.335938 353.082031 354.851562 353.570312 C 342 353.582031 330.511719 340.058594 332.765625 313.34375 C 333.230469 335.703125 351.042969 362.929688 370.078125 338.867188 C 377.308594 329.535156 379.292969 317.792969 374.070312 311.957031 C 369.269531 306.175781 344.503906 286.175781 329.746094 287.648438 C 314.988281 289.125 300.007812 298.714844 297.375 305.65625 C 294.632812 313.4375 295.867188 317.03125 292.5625 322.597656 C 289.253906 328.160156 281.457031 335.273438 274.363281 340.335938 C 280.214844 360.832031 288.101562 362.734375 307.601562 361.03125 C 315.824219 360.40625 331.066406 371.429688 323.875 396.628906 C 321.605469 404.046875 317.34375 410.339844 313.503906 416.691406 C 295.425781 446.453125 312.453125 473.144531 343.71875 482.863281 Z M 307.007812 313.792969 C 308.15625 314.800781 309.253906 316.234375 309.03125 317.917969 C 308.695312 320.445312 306.367188 321.851562 304.261719 321.574219 C 301.738281 321.238281 300.277344 319.332031 300.609375 316.800781 C 300.777344 315.539062 301.789062 314.386719 302.683594 314.074219 C 302.574219 314.917969 303.304688 315.871094 304.566406 316.039062 C 305.828125 316.207031 306.839844 315.054688 306.949219 314.210938 C 307.007812 313.792969 307.007812 313.792969 307.007812 313.792969 Z M 307.007812 313.792969 " fill-opacity="1" fill-rule="evenodd"/></g></g></g><g fill="#ffffff" fill-opacity="1"><g transform="translate(184.013617, 705.564592)"><g><path d="M 6.90625 0.34375 C 6.289062 0.34375 5.8125 0.09375 5.46875 -0.40625 C 5.125 -0.90625 4.953125 -1.5 4.953125 -2.1875 C 5.023438 -3.34375 5.253906 -4.035156 5.640625 -4.265625 C 6.023438 -4.492188 6.753906 -4.609375 7.828125 -4.609375 C 10.054688 -4.609375 11.707031 -5.007812 12.78125 -5.8125 C 13.851562 -6.625 14.523438 -7.625 14.796875 -8.8125 C 15.066406 -10 15.238281 -11.550781 15.3125 -13.46875 L 15.3125 -59.1875 C 15.238281 -61.101562 15.066406 -62.65625 14.796875 -63.84375 C 14.523438 -65.039062 13.851562 -66.039062 12.78125 -66.84375 C 11.707031 -67.65625 10.054688 -68.0625 7.828125 -68.0625 L 7.140625 -68.0625 C 6.367188 -68.0625 5.828125 -68.191406 5.515625 -68.453125 C 5.210938 -68.722656 5.023438 -69.394531 4.953125 -70.46875 C 4.953125 -71.164062 5.125 -71.765625 5.46875 -72.265625 C 5.8125 -72.765625 6.289062 -73.015625 6.90625 -73.015625 C 11.976562 -72.773438 16.546875 -72.65625 20.609375 -72.65625 L 38.578125 -72.65625 C 45.941406 -72.65625 52.640625 -71.175781 58.671875 -68.21875 C 64.703125 -65.269531 69.460938 -61.03125 72.953125 -55.5 C 76.441406 -49.976562 78.1875 -43.453125 78.1875 -35.921875 C 78.1875 -28.097656 76.207031 -21.476562 72.25 -16.0625 C 68.300781 -10.65625 63.160156 -6.625 56.828125 -3.96875 C 50.492188 -1.320312 43.71875 0 36.5 0 L 20.609375 0 C 16.546875 0 11.976562 0.113281 6.90625 0.34375 Z M 38.234375 -4.265625 C 47.210938 -4.265625 53.789062 -7.046875 57.96875 -12.609375 C 62.15625 -18.171875 64.25 -25.941406 64.25 -35.921875 C 64.25 -42.222656 63.117188 -47.847656 60.859375 -52.796875 C 58.597656 -57.753906 55.316406 -61.613281 51.015625 -64.375 C 46.710938 -67.132812 41.609375 -68.515625 35.703125 -68.515625 L 26.71875 -68.40625 L 26.71875 -12.09375 C 26.71875 -9.09375 27.617188 -7.035156 29.421875 -5.921875 C 31.222656 -4.816406 34.160156 -4.265625 38.234375 -4.265625 Z M 38.234375 -4.265625 "/></g></g></g><g fill="#ffffff" fill-opacity="1"><g transform="translate(267.826534, 705.564592)"><g><path d="M 6.90625 0.34375 C 6.289062 0.34375 5.8125 0.09375 5.46875 -0.40625 C 5.125 -0.90625 4.953125 -1.5 4.953125 -2.1875 C 5.023438 -3.34375 5.253906 -4.035156 5.640625 -4.265625 C 6.023438 -4.492188 6.753906 -4.609375 7.828125 -4.609375 C 10.054688 -4.609375 11.707031 -5.007812 12.78125 -5.8125 C 13.851562 -6.625 14.523438 -7.625 14.796875 -8.8125 C 15.066406 -10 15.238281 -11.550781 15.3125 -13.46875 L 15.3125 -59.1875 C 15.238281 -61.101562 15.066406 -62.65625 14.796875 -63.84375 C 14.523438 -65.039062 13.851562 -66.039062 12.78125 -66.84375 C 11.707031 -67.65625 10.054688 -68.0625 7.828125 -68.0625 L 7.140625 -68.0625 C 6.367188 -68.0625 5.828125 -68.191406 5.515625 -68.453125 C 5.210938 -68.722656 5.023438 -69.394531 4.953125 -70.46875 C 4.953125 -71.164062 5.125 -71.765625 5.46875 -72.265625 C 5.8125 -72.765625 6.289062 -73.015625 6.90625 -73.015625 C 11.976562 -72.773438 16.546875 -72.65625 20.609375 -72.65625 L 56.765625 -72.65625 C 58.765625 -72.65625 59.765625 -71.738281 59.765625 -69.90625 L 60.109375 -53.78125 C 60.109375 -53.082031 59.757812 -52.519531 59.0625 -52.09375 C 58.375 -51.675781 57.6875 -51.46875 57 -51.46875 C 56.082031 -51.46875 55.273438 -51.640625 54.578125 -51.984375 C 53.890625 -52.335938 53.507812 -52.859375 53.4375 -53.546875 C 52.820312 -57.304688 52.148438 -60.164062 51.421875 -62.125 C 50.691406 -64.082031 49.613281 -65.539062 48.1875 -66.5 C 46.769531 -67.457031 44.753906 -67.976562 42.140625 -68.0625 L 26.71875 -68.0625 L 26.71875 -38.8125 L 47.5625 -38.8125 C 48.09375 -38.726562 48.507812 -38.4375 48.8125 -37.9375 C 49.125 -37.445312 49.28125 -36.851562 49.28125 -36.15625 C 49.28125 -35.539062 49.125 -35.003906 48.8125 -34.546875 C 48.507812 -34.085938 48.09375 -33.859375 47.5625 -33.859375 L 26.71875 -33.859375 L 26.71875 -12.09375 C 26.875 -10.476562 27.066406 -9.191406 27.296875 -8.234375 C 27.523438 -7.273438 28.210938 -6.410156 29.359375 -5.640625 C 30.515625 -4.867188 32.320312 -4.523438 34.78125 -4.609375 L 45.375 -4.609375 C 48.0625 -4.679688 50.09375 -5.117188 51.46875 -5.921875 C 52.851562 -6.734375 53.945312 -7.984375 54.75 -9.671875 C 55.5625 -11.359375 56.539062 -14.125 57.6875 -17.96875 C 58.226562 -19.34375 59.535156 -19.878906 61.609375 -19.578125 C 62.378906 -19.421875 63.050781 -19.113281 63.625 -18.65625 C 64.195312 -18.195312 64.445312 -17.617188 64.375 -16.921875 L 62.0625 -2.421875 C 61.832031 -1.421875 61.488281 -0.765625 61.03125 -0.453125 C 60.570312 -0.148438 59.804688 0 58.734375 0 L 20.734375 0 C 16.585938 0 11.976562 0.113281 6.90625 0.34375 Z M 6.90625 0.34375 "/></g></g></g><g fill="#ffffff" fill-opacity="1"><g transform="translate(336.21238, 705.564592)"><g><path d="M 7.140625 0.34375 C 6.453125 0.34375 5.929688 0.09375 5.578125 -0.40625 C 5.234375 -0.90625 5.0625 -1.5 5.0625 -2.1875 C 5.144531 -3.34375 5.375 -4.035156 5.75 -4.265625 C 6.132812 -4.492188 6.867188 -4.609375 7.953125 -4.609375 C 10.171875 -4.609375 11.796875 -5.007812 12.828125 -5.8125 C 13.867188 -6.625 14.503906 -7.582031 14.734375 -8.6875 C 14.960938 -9.800781 15.117188 -11.394531 15.203125 -13.46875 L 15.4375 -59.1875 C 15.4375 -61.488281 15.1875 -63.234375 14.6875 -64.421875 C 14.1875 -65.617188 13.394531 -66.484375 12.3125 -67.015625 C 11.238281 -67.554688 9.707031 -68.019531 7.71875 -68.40625 C 6.40625 -68.632812 5.597656 -68.863281 5.296875 -69.09375 C 4.992188 -69.320312 4.84375 -69.972656 4.84375 -71.046875 C 4.84375 -71.972656 5.085938 -72.585938 5.578125 -72.890625 C 6.078125 -73.203125 6.867188 -73.359375 7.953125 -73.359375 C 12.703125 -73.359375 16.457031 -73.03125 19.21875 -72.375 C 21.988281 -71.71875 24.425781 -70.546875 26.53125 -68.859375 C 28.644531 -67.171875 30.972656 -64.597656 33.515625 -61.140625 L 65.0625 -19.6875 L 65.40625 -19.6875 L 65.171875 -59.1875 C 65.097656 -61.257812 64.945312 -62.851562 64.71875 -63.96875 C 64.488281 -65.082031 63.851562 -66.039062 62.8125 -66.84375 C 61.78125 -67.65625 60.148438 -68.0625 57.921875 -68.0625 L 57.234375 -68.0625 C 56.460938 -68.0625 55.90625 -68.191406 55.5625 -68.453125 C 55.21875 -68.722656 55.003906 -69.394531 54.921875 -70.46875 C 54.921875 -71.164062 55.113281 -71.765625 55.5 -72.265625 C 55.882812 -72.765625 56.382812 -73.015625 57 -73.015625 C 61.914062 -72.773438 65.601562 -72.65625 68.0625 -72.65625 C 69.519531 -72.65625 72.320312 -72.734375 76.46875 -72.890625 L 78.875 -73.015625 C 79.570312 -73.015625 80.09375 -72.765625 80.4375 -72.265625 C 80.78125 -71.765625 80.953125 -71.164062 80.953125 -70.46875 C 80.878906 -69.320312 80.648438 -68.632812 80.265625 -68.40625 C 79.878906 -68.175781 79.148438 -68.0625 78.078125 -68.0625 C 75.847656 -68.0625 74.210938 -67.65625 73.171875 -66.84375 C 72.140625 -66.039062 71.507812 -65.082031 71.28125 -63.96875 C 71.050781 -62.851562 70.898438 -61.257812 70.828125 -59.1875 L 70.59375 -1.15625 C 70.507812 -0.15625 69.550781 0.34375 67.71875 0.34375 C 66.257812 0.34375 65.144531 -0.15625 64.375 -1.15625 L 20.953125 -59.1875 L 20.609375 -59.1875 L 20.84375 -13.46875 C 20.914062 -11.394531 21.066406 -9.800781 21.296875 -8.6875 C 21.535156 -7.582031 22.171875 -6.625 23.203125 -5.8125 C 24.242188 -5.007812 25.875 -4.609375 28.09375 -4.609375 L 28.78125 -4.609375 C 29.550781 -4.609375 30.109375 -4.472656 30.453125 -4.203125 C 30.804688 -3.929688 31.019531 -3.257812 31.09375 -2.1875 C 31.09375 -1.5 30.921875 -0.90625 30.578125 -0.40625 C 30.234375 0.09375 29.710938 0.34375 29.015625 0.34375 C 24.109375 0.113281 20.382812 0 17.84375 0 C 16.3125 0 13.625 0.078125 9.78125 0.234375 Z M 7.140625 0.34375 "/></g></g></g><g fill="#ffffff" fill-opacity="1"><g transform="translate(421.061432, 705.564592)"><g><path d="M 6.90625 0.34375 C 6.21875 0.34375 5.703125 0.09375 5.359375 -0.40625 C 5.015625 -0.90625 4.84375 -1.5 4.84375 -2.1875 C 4.914062 -3.34375 5.160156 -4.035156 5.578125 -4.265625 C 6.003906 -4.492188 6.71875 -4.609375 7.71875 -4.609375 C 9.945312 -4.609375 11.597656 -5.007812 12.671875 -5.8125 C 13.742188 -6.625 14.429688 -7.601562 14.734375 -8.75 C 15.046875 -9.90625 15.238281 -11.476562 15.3125 -13.46875 L 15.3125 -59.1875 C 15.238281 -61.1875 15.046875 -62.757812 14.734375 -63.90625 C 14.429688 -65.0625 13.742188 -66.039062 12.671875 -66.84375 C 11.597656 -67.65625 9.945312 -68.0625 7.71875 -68.0625 L 7.03125 -68.0625 C 6.332031 -68.0625 5.8125 -68.191406 5.46875 -68.453125 C 5.125 -68.722656 4.914062 -69.394531 4.84375 -70.46875 C 4.84375 -71.164062 5.015625 -71.765625 5.359375 -72.265625 C 5.703125 -72.765625 6.21875 -73.015625 6.90625 -73.015625 C 11.894531 -72.773438 16.460938 -72.65625 20.609375 -72.65625 C 25.210938 -72.65625 30.007812 -72.773438 35 -73.015625 C 35.695312 -73.015625 36.21875 -72.765625 36.5625 -72.265625 C 36.90625 -71.765625 37.078125 -71.164062 37.078125 -70.46875 C 37.003906 -69.320312 36.753906 -68.632812 36.328125 -68.40625 C 35.910156 -68.175781 35.164062 -68.0625 34.09375 -68.0625 C 31.863281 -68.0625 30.207031 -67.65625 29.125 -66.84375 C 28.050781 -66.039062 27.378906 -65.039062 27.109375 -63.84375 C 26.847656 -62.65625 26.675781 -61.101562 26.59375 -59.1875 L 26.59375 -13.46875 C 26.675781 -11.550781 26.847656 -10 27.109375 -8.8125 C 27.378906 -7.625 28.050781 -6.625 29.125 -5.8125 C 30.207031 -5.007812 31.863281 -4.609375 34.09375 -4.609375 L 34.78125 -4.609375 C 35.539062 -4.609375 36.09375 -4.472656 36.4375 -4.203125 C 36.789062 -3.929688 37.003906 -3.257812 37.078125 -2.1875 C 37.078125 -1.5 36.90625 -0.90625 36.5625 -0.40625 C 36.21875 0.09375 35.695312 0.34375 35 0.34375 C 30.09375 0.113281 25.335938 0 20.734375 0 C 16.503906 0 11.894531 0.113281 6.90625 0.34375 Z M 6.90625 0.34375 "/></g></g></g><g fill="#ffffff" fill-opacity="1"><g transform="translate(462.967892, 705.564592)"><g><path d="M 30.515625 2.296875 C 22.453125 2.296875 16.289062 0.894531 12.03125 -1.90625 C 7.769531 -4.707031 5.640625 -8.832031 5.640625 -14.28125 C 5.640625 -17.039062 6.578125 -19.320312 8.453125 -21.125 C 10.335938 -22.9375 12.78125 -23.84375 15.78125 -23.84375 C 17.539062 -23.757812 18.878906 -23.3125 19.796875 -22.5 C 20.722656 -21.695312 21.1875 -20.953125 21.1875 -20.265625 C 21.1875 -20.191406 20.800781 -19.921875 20.03125 -19.453125 C 19.269531 -18.992188 18.582031 -18.300781 17.96875 -17.375 C 17.351562 -16.457031 17.046875 -15.195312 17.046875 -13.59375 C 17.046875 -9.976562 18.140625 -7.191406 20.328125 -5.234375 C 22.515625 -3.273438 25.910156 -2.296875 30.515625 -2.296875 C 33.660156 -2.296875 36.421875 -2.910156 38.796875 -4.140625 C 41.179688 -5.367188 43.003906 -7 44.265625 -9.03125 C 45.535156 -11.070312 46.171875 -13.207031 46.171875 -15.4375 C 46.171875 -18.195312 45.382812 -20.570312 43.8125 -22.5625 C 42.238281 -24.5625 40.300781 -26.234375 38 -27.578125 C 35.695312 -28.921875 32.550781 -30.476562 28.5625 -32.25 C 23.957031 -34.320312 20.234375 -36.203125 17.390625 -37.890625 C 14.546875 -39.578125 12.125 -41.820312 10.125 -44.625 C 8.132812 -47.425781 7.140625 -50.898438 7.140625 -55.046875 C 7.140625 -61.722656 9.421875 -66.710938 13.984375 -70.015625 C 18.554688 -73.316406 24.566406 -74.96875 32.015625 -74.96875 C 37.847656 -74.96875 42.929688 -73.738281 47.265625 -71.28125 C 51.609375 -68.820312 53.78125 -65.210938 53.78125 -60.453125 C 53.78125 -57.691406 52.835938 -55.410156 50.953125 -53.609375 C 49.078125 -51.804688 46.640625 -50.90625 43.640625 -50.90625 C 41.878906 -50.976562 40.535156 -51.414062 39.609375 -52.21875 C 38.691406 -53.03125 38.234375 -53.78125 38.234375 -54.46875 C 38.234375 -54.539062 38.75 -54.804688 39.78125 -55.265625 C 40.820312 -55.734375 41.742188 -56.425781 42.546875 -57.34375 C 43.359375 -58.269531 43.765625 -59.535156 43.765625 -61.140625 C 43.765625 -63.984375 42.671875 -66.210938 40.484375 -67.828125 C 38.296875 -69.441406 35.507812 -70.25 32.125 -70.25 C 27.445312 -70.25 23.894531 -69.15625 21.46875 -66.96875 C 19.050781 -64.78125 17.84375 -62.070312 17.84375 -58.84375 C 17.84375 -56.15625 18.570312 -53.910156 20.03125 -52.109375 C 21.488281 -50.304688 23.832031 -48.519531 27.0625 -46.75 C 29.675781 -45.375 32.515625 -43.992188 35.578125 -42.609375 C 40.492188 -40.378906 44.390625 -38.34375 47.265625 -36.5 C 50.148438 -34.65625 52.570312 -32.238281 54.53125 -29.25 C 56.488281 -26.257812 57.46875 -22.535156 57.46875 -18.078125 C 57.46875 -14.242188 56.253906 -10.769531 53.828125 -7.65625 C 51.410156 -4.550781 48.148438 -2.113281 44.046875 -0.34375 C 39.941406 1.414062 35.429688 2.296875 30.515625 2.296875 Z M 30.515625 2.296875 "/></g></g></g><g fill="#ffffff" fill-opacity="1"><g transform="translate(525.712438, 705.564592)"><g><path d="M 6.90625 0.34375 C 6.289062 0.34375 5.8125 0.09375 5.46875 -0.40625 C 5.125 -0.90625 4.953125 -1.5 4.953125 -2.1875 C 5.023438 -3.34375 5.253906 -4.035156 5.640625 -4.265625 C 6.023438 -4.492188 6.753906 -4.609375 7.828125 -4.609375 C 10.054688 -4.609375 11.707031 -5.007812 12.78125 -5.8125 C 13.851562 -6.625 14.523438 -7.625 14.796875 -8.8125 C 15.066406 -10 15.238281 -11.550781 15.3125 -13.46875 L 15.3125 -59.1875 C 15.238281 -61.101562 15.066406 -62.65625 14.796875 -63.84375 C 14.523438 -65.039062 13.851562 -66.039062 12.78125 -66.84375 C 11.707031 -67.65625 10.054688 -68.0625 7.828125 -68.0625 L 7.140625 -68.0625 C 6.367188 -68.0625 5.828125 -68.191406 5.515625 -68.453125 C 5.210938 -68.722656 5.023438 -69.394531 4.953125 -70.46875 C 4.953125 -71.164062 5.125 -71.765625 5.46875 -72.265625 C 5.8125 -72.765625 6.289062 -73.015625 6.90625 -73.015625 C 11.976562 -72.773438 16.546875 -72.65625 20.609375 -72.65625 L 56.765625 -72.65625 C 58.765625 -72.65625 59.765625 -71.738281 59.765625 -69.90625 L 60.109375 -53.78125 C 60.109375 -53.082031 59.757812 -52.519531 59.0625 -52.09375 C 58.375 -51.675781 57.6875 -51.46875 57 -51.46875 C 56.082031 -51.46875 55.273438 -51.640625 54.578125 -51.984375 C 53.890625 -52.335938 53.507812 -52.859375 53.4375 -53.546875 C 52.820312 -57.304688 52.148438 -60.164062 51.421875 -62.125 C 50.691406 -64.082031 49.613281 -65.539062 48.1875 -66.5 C 46.769531 -67.457031 44.753906 -67.976562 42.140625 -68.0625 L 26.71875 -68.0625 L 26.71875 -38.8125 L 47.5625 -38.8125 C 48.09375 -38.726562 48.507812 -38.4375 48.8125 -37.9375 C 49.125 -37.445312 49.28125 -36.851562 49.28125 -36.15625 C 49.28125 -35.539062 49.125 -35.003906 48.8125 -34.546875 C 48.507812 -34.085938 48.09375 -33.859375 47.5625 -33.859375 L 26.71875 -33.859375 L 26.71875 -12.09375 C 26.875 -10.476562 27.066406 -9.191406 27.296875 -8.234375 C 27.523438 -7.273438 28.210938 -6.410156 29.359375 -5.640625 C 30.515625 -4.867188 32.320312 -4.523438 34.78125 -4.609375 L 45.375 -4.609375 C 48.0625 -4.679688 50.09375 -5.117188 51.46875 -5.921875 C 52.851562 -6.734375 53.945312 -7.984375 54.75 -9.671875 C 55.5625 -11.359375 56.539062 -14.125 57.6875 -17.96875 C 58.226562 -19.34375 59.535156 -19.878906 61.609375 -19.578125 C 62.378906 -19.421875 63.050781 -19.113281 63.625 -18.65625 C 64.195312 -18.195312 64.445312 -17.617188 64.375 -16.921875 L 62.0625 -2.421875 C 61.832031 -1.421875 61.488281 -0.765625 61.03125 -0.453125 C 60.570312 -0.148438 59.804688 0 58.734375 0 L 20.734375 0 C 16.585938 0 11.976562 0.113281 6.90625 0.34375 Z M 6.90625 0.34375 "/></g></g></g><g fill="#ffffff" fill-opacity="1"><g transform="translate(594.098284, 705.564592)"><g/></g></g><g fill="#ffffff" fill-opacity="1"><g transform="translate(619.771762, 705.564592)"><g><path d="M 41.21875 2.296875 C 34.695312 2.296875 28.726562 0.742188 23.3125 -2.359375 C 17.90625 -5.472656 13.609375 -9.90625 10.421875 -15.65625 C 7.234375 -21.414062 5.640625 -28.132812 5.640625 -35.8125 C 5.640625 -43.5625 7.175781 -50.390625 10.25 -56.296875 C 13.320312 -62.210938 17.695312 -66.800781 23.375 -70.0625 C 29.050781 -73.332031 35.691406 -74.96875 43.296875 -74.96875 C 49.898438 -74.96875 55.773438 -73.640625 60.921875 -70.984375 C 66.066406 -68.335938 68.640625 -64.253906 68.640625 -58.734375 C 68.710938 -55.273438 67.671875 -52.335938 65.515625 -49.921875 C 63.367188 -47.503906 60.492188 -46.296875 56.890625 -46.296875 C 55.503906 -46.296875 54.332031 -46.546875 53.375 -47.046875 C 52.414062 -47.546875 51.703125 -48.140625 51.234375 -48.828125 C 50.773438 -49.515625 50.585938 -50.050781 50.671875 -50.4375 C 50.671875 -50.59375 51.207031 -51.015625 52.28125 -51.703125 C 53.351562 -52.390625 54.3125 -53.347656 55.15625 -54.578125 C 56 -55.804688 56.421875 -57.304688 56.421875 -59.078125 C 56.421875 -62.523438 55.25 -65.265625 52.90625 -67.296875 C 50.570312 -69.335938 47.332031 -70.359375 43.1875 -70.359375 C 38.5 -70.359375 34.332031 -69.035156 30.6875 -66.390625 C 27.039062 -63.742188 24.195312 -59.863281 22.15625 -54.75 C 20.125 -49.644531 19.109375 -43.5625 19.109375 -36.5 C 19.109375 -30.363281 20.203125 -24.78125 22.390625 -19.75 C 24.585938 -14.71875 27.679688 -10.722656 31.671875 -7.765625 C 35.660156 -4.816406 40.226562 -3.34375 45.375 -3.34375 C 49.519531 -3.34375 53.066406 -4.203125 56.015625 -5.921875 C 58.972656 -7.648438 61.644531 -10.4375 64.03125 -14.28125 C 64.414062 -14.96875 64.953125 -15.3125 65.640625 -15.3125 C 66.253906 -15.3125 66.945312 -15.082031 67.71875 -14.625 C 68.9375 -13.78125 69.546875 -12.9375 69.546875 -12.09375 C 69.546875 -11.632812 69.394531 -11.25 69.09375 -10.9375 C 66.175781 -7.25 63.429688 -4.460938 60.859375 -2.578125 C 58.285156 -0.703125 55.5 0.578125 52.5 1.265625 C 49.507812 1.953125 45.75 2.296875 41.21875 2.296875 Z M 41.21875 2.296875 "/></g></g></g><g fill="#ffffff" fill-opacity="1"><g transform="translate(693.338338, 705.564592)"><g><path d="M 7.03125 0.34375 C 6.332031 0.34375 5.8125 0.09375 5.46875 -0.40625 C 5.125 -0.90625 4.953125 -1.5 4.953125 -2.1875 C 5.023438 -3.34375 5.253906 -4.035156 5.640625 -4.265625 C 6.023438 -4.492188 6.753906 -4.609375 7.828125 -4.609375 C 10.054688 -4.609375 11.707031 -5.007812 12.78125 -5.8125 C 13.851562 -6.625 14.523438 -7.625 14.796875 -8.8125 C 15.066406 -10 15.238281 -11.550781 15.3125 -13.46875 L 15.3125 -59.1875 C 15.238281 -61.101562 15.066406 -62.65625 14.796875 -63.84375 C 14.523438 -65.039062 13.851562 -66.039062 12.78125 -66.84375 C 11.707031 -67.65625 10.054688 -68.0625 7.828125 -68.0625 L 7.140625 -68.0625 C 6.367188 -68.0625 5.828125 -68.191406 5.515625 -68.453125 C 5.210938 -68.722656 5.023438 -69.394531 4.953125 -70.46875 C 4.953125 -71.164062 5.125 -71.765625 5.46875 -72.265625 C 5.8125 -72.765625 6.332031 -73.015625 7.03125 -73.015625 C 12.019531 -72.773438 16.546875 -72.65625 20.609375 -72.65625 C 25.210938 -72.65625 30.007812 -72.773438 35 -73.015625 C 35.695312 -73.015625 36.21875 -72.765625 36.5625 -72.265625 C 36.90625 -71.765625 37.078125 -71.164062 37.078125 -70.46875 C 37.003906 -69.320312 36.773438 -68.632812 36.390625 -68.40625 C 36.003906 -68.175781 35.273438 -68.0625 34.203125 -68.0625 C 31.972656 -68.0625 30.320312 -67.65625 29.25 -66.84375 C 28.175781 -66.039062 27.503906 -65.039062 27.234375 -63.84375 C 26.960938 -62.65625 26.789062 -61.101562 26.71875 -59.1875 L 26.71875 -38.8125 L 62.875 -38.8125 L 62.875 -59.1875 C 62.800781 -61.101562 62.628906 -62.65625 62.359375 -63.84375 C 62.085938 -65.039062 61.414062 -66.039062 60.34375 -66.84375 C 59.269531 -67.65625 57.617188 -68.0625 55.390625 -68.0625 L 54.703125 -68.0625 C 53.929688 -68.0625 53.375 -68.191406 53.03125 -68.453125 C 52.6875 -68.722656 52.472656 -69.394531 52.390625 -70.46875 C 52.390625 -71.164062 52.582031 -71.765625 52.96875 -72.265625 C 53.351562 -72.765625 53.851562 -73.015625 54.46875 -73.015625 C 59.457031 -72.773438 64.253906 -72.65625 68.859375 -72.65625 C 73.085938 -72.65625 77.65625 -72.773438 82.5625 -73.015625 C 83.257812 -73.015625 83.78125 -72.765625 84.125 -72.265625 C 84.46875 -71.765625 84.640625 -71.164062 84.640625 -70.46875 C 84.566406 -69.320312 84.316406 -68.632812 83.890625 -68.40625 C 83.472656 -68.175781 82.765625 -68.0625 81.765625 -68.0625 C 79.535156 -68.0625 77.863281 -67.65625 76.75 -66.84375 C 75.632812 -66.039062 74.941406 -65.039062 74.671875 -63.84375 C 74.410156 -62.65625 74.238281 -61.101562 74.15625 -59.1875 L 74.15625 -13.46875 C 74.238281 -11.550781 74.410156 -10 74.671875 -8.8125 C 74.941406 -7.625 75.632812 -6.625 76.75 -5.8125 C 77.863281 -5.007812 79.535156 -4.609375 81.765625 -4.609375 L 82.453125 -4.609375 C 83.140625 -4.609375 83.65625 -4.472656 84 -4.203125 C 84.351562 -3.929688 84.566406 -3.257812 84.640625 -2.1875 C 84.640625 -1.5 84.46875 -0.90625 84.125 -0.40625 C 83.78125 0.09375 83.257812 0.34375 82.5625 0.34375 C 77.65625 0.113281 73.050781 0 68.75 0 C 64.21875 0 59.457031 0.113281 54.46875 0.34375 C 53.851562 0.34375 53.351562 0.09375 52.96875 -0.40625 C 52.582031 -0.90625 52.390625 -1.5 52.390625 -2.1875 C 52.472656 -3.34375 52.722656 -4.035156 53.140625 -4.265625 C 53.566406 -4.492188 54.316406 -4.609375 55.390625 -4.609375 C 57.617188 -4.609375 59.269531 -5.007812 60.34375 -5.8125 C 61.414062 -6.625 62.085938 -7.625 62.359375 -8.8125 C 62.628906 -10 62.800781 -11.550781 62.875 -13.46875 L 62.875 -33.859375 L 26.71875 -33.859375 L 26.71875 -13.46875 C 26.789062 -11.550781 26.960938 -10 27.234375 -8.8125 C 27.503906 -7.625 28.175781 -6.625 29.25 -5.8125 C 30.320312 -5.007812 31.972656 -4.609375 34.203125 -4.609375 L 34.890625 -4.609375 C 35.660156 -4.609375 36.195312 -4.472656 36.5 -4.203125 C 36.8125 -3.929688 37.003906 -3.257812 37.078125 -2.1875 C 37.078125 -1.5 36.90625 -0.90625 36.5625 -0.40625 C 36.21875 0.09375 35.695312 0.34375 35 0.34375 C 30.09375 0.113281 25.335938 0 20.734375 0 C 16.585938 0 12.019531 0.113281 7.03125 0.34375 Z M 7.03125 0.34375 "/></g></g></g><g fill="#ffffff" fill-opacity="1"><g transform="translate(782.792498, 705.564592)"><g><path d="M 6.90625 0.34375 C 6.21875 0.34375 5.703125 0.09375 5.359375 -0.40625 C 5.015625 -0.90625 4.84375 -1.5 4.84375 -2.1875 C 4.914062 -3.34375 5.160156 -4.035156 5.578125 -4.265625 C 6.003906 -4.492188 6.71875 -4.609375 7.71875 -4.609375 C 9.945312 -4.609375 11.597656 -5.007812 12.671875 -5.8125 C 13.742188 -6.625 14.429688 -7.601562 14.734375 -8.75 C 15.046875 -9.90625 15.238281 -11.476562 15.3125 -13.46875 L 15.3125 -59.1875 C 15.238281 -61.1875 15.046875 -62.757812 14.734375 -63.90625 C 14.429688 -65.0625 13.742188 -66.039062 12.671875 -66.84375 C 11.597656 -67.65625 9.945312 -68.0625 7.71875 -68.0625 L 7.03125 -68.0625 C 6.332031 -68.0625 5.8125 -68.191406 5.46875 -68.453125 C 5.125 -68.722656 4.914062 -69.394531 4.84375 -70.46875 C 4.84375 -71.164062 5.015625 -71.765625 5.359375 -72.265625 C 5.703125 -72.765625 6.21875 -73.015625 6.90625 -73.015625 C 11.894531 -72.773438 16.460938 -72.65625 20.609375 -72.65625 C 25.210938 -72.65625 30.007812 -72.773438 35 -73.015625 C 35.695312 -73.015625 36.21875 -72.765625 36.5625 -72.265625 C 36.90625 -71.765625 37.078125 -71.164062 37.078125 -70.46875 C 37.003906 -69.320312 36.753906 -68.632812 36.328125 -68.40625 C 35.910156 -68.175781 35.164062 -68.0625 34.09375 -68.0625 C 31.863281 -68.0625 30.207031 -67.65625 29.125 -66.84375 C 28.050781 -66.039062 27.378906 -65.039062 27.109375 -63.84375 C 26.847656 -62.65625 26.675781 -61.101562 26.59375 -59.1875 L 26.59375 -13.46875 C 26.675781 -11.550781 26.847656 -10 27.109375 -8.8125 C 27.378906 -7.625 28.050781 -6.625 29.125 -5.8125 C 30.207031 -5.007812 31.863281 -4.609375 34.09375 -4.609375 L 34.78125 -4.609375 C 35.539062 -4.609375 36.09375 -4.472656 36.4375 -4.203125 C 36.789062 -3.929688 37.003906 -3.257812 37.078125 -2.1875 C 37.078125 -1.5 36.90625 -0.90625 36.5625 -0.40625 C 36.21875 0.09375 35.695312 0.34375 35 0.34375 C 30.09375 0.113281 25.335938 0 20.734375 0 C 16.503906 0 11.894531 0.113281 6.90625 0.34375 Z M 6.90625 0.34375 "/></g></g></g><g fill="#ffffff" fill-opacity="1"><g transform="translate(824.698958, 705.564592)"><g><path d="M 80.15625 23.03125 C 77 23.03125 74.191406 22.609375 71.734375 21.765625 C 69.285156 20.921875 67.140625 19.863281 65.296875 18.59375 C 63.453125 17.332031 61.070312 15.550781 58.15625 13.25 C 55.851562 11.320312 53.796875 9.707031 51.984375 8.40625 C 50.179688 7.101562 48.242188 5.914062 46.171875 4.84375 C 43.722656 3.613281 40.804688 2.613281 37.421875 1.84375 C 29.359375 0 23.488281 -2.34375 19.8125 -5.1875 C 15.28125 -8.71875 11.765625 -13.128906 9.265625 -18.421875 C 6.773438 -23.722656 5.53125 -29.367188 5.53125 -35.359375 C 5.53125 -43.410156 7.351562 -50.429688 11 -56.421875 C 14.644531 -62.410156 19.304688 -67 24.984375 -70.1875 C 30.671875 -73.375 36.429688 -74.96875 42.265625 -74.96875 C 49.628906 -74.96875 56.148438 -73.21875 61.828125 -69.71875 C 67.515625 -66.226562 71.875 -61.625 74.90625 -55.90625 C 77.9375 -50.1875 79.453125 -44.023438 79.453125 -37.421875 C 79.453125 -28.828125 77.28125 -21.320312 72.9375 -14.90625 C 68.601562 -8.5 62.867188 -3.875 55.734375 -1.03125 C 54.503906 -0.5 52.929688 -0.191406 51.015625 -0.109375 L 51.015625 0.109375 C 53.085938 0.335938 54.96875 0.878906 56.65625 1.734375 C 59.644531 3.191406 63.675781 5.757812 68.75 9.4375 C 72.507812 12.125 75.539062 14.097656 77.84375 15.359375 C 80.144531 16.628906 82.410156 17.265625 84.640625 17.265625 C 86.023438 17.117188 87.039062 16.679688 87.6875 15.953125 C 88.34375 15.222656 88.671875 14.320312 88.671875 13.25 C 88.671875 11.40625 87.957031 9.691406 86.53125 8.109375 C 85.113281 6.535156 83.289062 5.710938 81.0625 5.640625 C 80.832031 4.410156 81.289062 3.21875 82.4375 2.0625 C 83.59375 0.914062 85.328125 0.34375 87.640625 0.34375 C 88.628906 0.34375 89.757812 0.6875 91.03125 1.375 C 92.300781 2.070312 93.414062 3.109375 94.375 4.484375 C 95.332031 5.867188 95.8125 7.5625 95.8125 9.5625 C 95.8125 11.863281 95.023438 14.03125 93.453125 16.0625 C 91.878906 18.09375 89.878906 19.742188 87.453125 21.015625 C 85.035156 22.285156 82.601562 22.957031 80.15625 23.03125 Z M 42.140625 -2.421875 C 47.367188 -2.421875 51.75 -4.007812 55.28125 -7.1875 C 58.8125 -10.375 61.4375 -14.617188 63.15625 -19.921875 C 64.882812 -25.222656 65.75 -31.054688 65.75 -37.421875 C 65.75 -43.335938 64.863281 -48.769531 63.09375 -53.71875 C 61.332031 -58.664062 58.664062 -62.617188 55.09375 -65.578125 C 51.53125 -68.535156 47.210938 -70.015625 42.140625 -70.015625 C 34.460938 -70.015625 28.703125 -66.769531 24.859375 -60.28125 C 21.023438 -53.789062 19.109375 -45.597656 19.109375 -35.703125 C 19.109375 -29.710938 19.972656 -24.179688 21.703125 -19.109375 C 23.429688 -14.046875 26.019531 -10 29.46875 -6.96875 C 32.925781 -3.9375 37.148438 -2.421875 42.140625 -2.421875 Z M 42.140625 -2.421875 "/></g></g></g><g fill="#ffffff" fill-opacity="1"><g transform="translate(909.54801, 705.564592)"><g><path d="M 41.34375 2.296875 C 35.425781 2.296875 30.375 1.257812 26.1875 -0.8125 C 22.007812 -2.882812 18.84375 -5.609375 16.6875 -8.984375 C 14.539062 -12.359375 13.46875 -16.003906 13.46875 -19.921875 L 13.46875 -59.1875 C 13.394531 -61.101562 13.222656 -62.65625 12.953125 -63.84375 C 12.679688 -65.039062 12.007812 -66.039062 10.9375 -66.84375 C 9.863281 -67.65625 8.210938 -68.0625 5.984375 -68.0625 L 5.296875 -68.0625 C 4.523438 -68.0625 3.984375 -68.191406 3.671875 -68.453125 C 3.367188 -68.722656 3.179688 -69.394531 3.109375 -70.46875 C 3.109375 -71.164062 3.28125 -71.765625 3.625 -72.265625 C 3.96875 -72.765625 4.488281 -73.015625 5.1875 -73.015625 C 10.09375 -72.773438 14.617188 -72.65625 18.765625 -72.65625 C 23.453125 -72.65625 28.253906 -72.773438 33.171875 -73.015625 C 33.859375 -73.015625 34.375 -72.765625 34.71875 -72.265625 C 35.0625 -71.765625 35.234375 -71.164062 35.234375 -70.46875 C 35.160156 -69.394531 34.953125 -68.722656 34.609375 -68.453125 C 34.265625 -68.191406 33.707031 -68.0625 32.9375 -68.0625 C 30.476562 -68.0625 28.671875 -67.675781 27.515625 -66.90625 C 26.367188 -66.132812 25.660156 -65.171875 25.390625 -64.015625 C 25.117188 -62.867188 24.945312 -61.257812 24.875 -59.1875 L 24.875 -23.265625 C 24.875 -17.960938 26.117188 -13.503906 28.609375 -9.890625 C 31.109375 -6.285156 35.96875 -4.484375 43.1875 -4.484375 C 50.25 -4.484375 55.253906 -6.113281 58.203125 -9.375 C 61.160156 -12.644531 62.640625 -16.738281 62.640625 -21.65625 L 62.640625 -51.9375 C 62.640625 -57.15625 62.445312 -60.835938 62.0625 -62.984375 C 61.6875 -65.140625 60.921875 -66.523438 59.765625 -67.140625 C 58.609375 -67.753906 56.613281 -68.0625 53.78125 -68.0625 L 53.09375 -68.0625 C 52.394531 -68.0625 51.875 -68.191406 51.53125 -68.453125 C 51.1875 -68.722656 50.976562 -69.394531 50.90625 -70.46875 C 50.90625 -71.164062 51.078125 -71.765625 51.421875 -72.265625 C 51.765625 -72.765625 52.28125 -73.015625 52.96875 -73.015625 C 57.957031 -72.773438 62.257812 -72.65625 65.875 -72.65625 C 69.550781 -72.65625 73.847656 -72.773438 78.765625 -73.015625 C 79.453125 -73.015625 79.96875 -72.765625 80.3125 -72.265625 C 80.664062 -71.765625 80.84375 -71.164062 80.84375 -70.46875 C 80.757812 -69.394531 80.546875 -68.722656 80.203125 -68.453125 C 79.859375 -68.191406 79.300781 -68.0625 78.53125 -68.0625 C 75.46875 -68.0625 73.335938 -67.789062 72.140625 -67.25 C 70.953125 -66.707031 70.144531 -65.421875 69.71875 -63.390625 C 69.300781 -61.359375 69.09375 -57.769531 69.09375 -52.625 L 69.09375 -20.5 C 69.09375 -15.351562 67.671875 -11.070312 64.828125 -7.65625 C 61.992188 -4.238281 58.445312 -1.722656 54.1875 -0.109375 C 49.925781 1.492188 45.644531 2.296875 41.34375 2.296875 Z M 41.34375 2.296875 "/></g></g></g><g fill="#ffffff" fill-opacity="1"><g transform="translate(992.439908, 705.564592)"><g><path d="M 6.90625 0.34375 C 6.289062 0.34375 5.8125 0.09375 5.46875 -0.40625 C 5.125 -0.90625 4.953125 -1.5 4.953125 -2.1875 C 5.023438 -3.34375 5.253906 -4.035156 5.640625 -4.265625 C 6.023438 -4.492188 6.753906 -4.609375 7.828125 -4.609375 C 10.054688 -4.609375 11.707031 -5.007812 12.78125 -5.8125 C 13.851562 -6.625 14.523438 -7.625 14.796875 -8.8125 C 15.066406 -10 15.238281 -11.550781 15.3125 -13.46875 L 15.3125 -59.1875 C 15.238281 -61.101562 15.066406 -62.65625 14.796875 -63.84375 C 14.523438 -65.039062 13.851562 -66.039062 12.78125 -66.84375 C 11.707031 -67.65625 10.054688 -68.0625 7.828125 -68.0625 L 7.140625 -68.0625 C 6.367188 -68.0625 5.828125 -68.191406 5.515625 -68.453125 C 5.210938 -68.722656 5.023438 -69.394531 4.953125 -70.46875 C 4.953125 -71.164062 5.125 -71.765625 5.46875 -72.265625 C 5.8125 -72.765625 6.289062 -73.015625 6.90625 -73.015625 C 11.976562 -72.773438 16.546875 -72.65625 20.609375 -72.65625 L 56.765625 -72.65625 C 58.765625 -72.65625 59.765625 -71.738281 59.765625 -69.90625 L 60.109375 -53.78125 C 60.109375 -53.082031 59.757812 -52.519531 59.0625 -52.09375 C 58.375 -51.675781 57.6875 -51.46875 57 -51.46875 C 56.082031 -51.46875 55.273438 -51.640625 54.578125 -51.984375 C 53.890625 -52.335938 53.507812 -52.859375 53.4375 -53.546875 C 52.820312 -57.304688 52.148438 -60.164062 51.421875 -62.125 C 50.691406 -64.082031 49.613281 -65.539062 48.1875 -66.5 C 46.769531 -67.457031 44.753906 -67.976562 42.140625 -68.0625 L 26.71875 -68.0625 L 26.71875 -38.8125 L 47.5625 -38.8125 C 48.09375 -38.726562 48.507812 -38.4375 48.8125 -37.9375 C 49.125 -37.445312 49.28125 -36.851562 49.28125 -36.15625 C 49.28125 -35.539062 49.125 -35.003906 48.8125 -34.546875 C 48.507812 -34.085938 48.09375 -33.859375 47.5625 -33.859375 L 26.71875 -33.859375 L 26.71875 -12.09375 C 26.875 -10.476562 27.066406 -9.191406 27.296875 -8.234375 C 27.523438 -7.273438 28.210938 -6.410156 29.359375 -5.640625 C 30.515625 -4.867188 32.320312 -4.523438 34.78125 -4.609375 L 45.375 -4.609375 C 48.0625 -4.679688 50.09375 -5.117188 51.46875 -5.921875 C 52.851562 -6.734375 53.945312 -7.984375 54.75 -9.671875 C 55.5625 -11.359375 56.539062 -14.125 57.6875 -17.96875 C 58.226562 -19.34375 59.535156 -19.878906 61.609375 -19.578125 C 62.378906 -19.421875 63.050781 -19.113281 63.625 -18.65625 C 64.195312 -18.195312 64.445312 -17.617188 64.375 -16.921875 L 62.0625 -2.421875 C 61.832031 -1.421875 61.488281 -0.765625 61.03125 -0.453125 C 60.570312 -0.148438 59.804688 0 58.734375 0 L 20.734375 0 C 16.585938 0 11.976562 0.113281 6.90625 0.34375 Z M 6.90625 0.34375 "/></g></g></g><g fill="#ffffff" fill-opacity="1"><g transform="translate(1060.825753, 705.564592)"><g><path d="M 20.609375 0.34375 C 19.921875 0.34375 19.40625 0.09375 19.0625 -0.40625 C 18.71875 -0.90625 18.546875 -1.5 18.546875 -2.1875 C 18.617188 -3.34375 18.847656 -4.035156 19.234375 -4.265625 C 19.617188 -4.492188 20.347656 -4.609375 21.421875 -4.609375 C 23.648438 -4.609375 25.300781 -5.007812 26.375 -5.8125 C 27.445312 -6.625 28.113281 -7.625 28.375 -8.8125 C 28.644531 -10 28.820312 -11.550781 28.90625 -13.46875 L 28.90625 -68.40625 L 20.953125 -68.40625 C 18.347656 -68.320312 16.332031 -67.757812 14.90625 -66.71875 C 13.488281 -65.6875 12.414062 -64.15625 11.6875 -62.125 C 10.957031 -60.09375 10.320312 -57.195312 9.78125 -53.4375 C 9.707031 -52.820312 9.25 -52.320312 8.40625 -51.9375 C 7.5625 -51.550781 6.675781 -51.359375 5.75 -51.359375 C 5.0625 -51.359375 4.429688 -51.566406 3.859375 -51.984375 C 3.285156 -52.410156 3 -52.96875 3 -53.65625 L 3.34375 -69.90625 C 3.34375 -71.738281 4.378906 -72.65625 6.453125 -72.65625 L 62.765625 -72.65625 C 64.753906 -72.65625 65.75 -71.738281 65.75 -69.90625 L 66.21875 -53.65625 C 66.21875 -52.96875 65.910156 -52.410156 65.296875 -51.984375 C 64.679688 -51.566406 64.023438 -51.359375 63.328125 -51.359375 C 62.410156 -51.359375 61.546875 -51.550781 60.734375 -51.9375 C 59.929688 -52.320312 59.492188 -52.820312 59.421875 -53.4375 C 58.804688 -57.269531 58.148438 -60.179688 57.453125 -62.171875 C 56.765625 -64.171875 55.691406 -65.6875 54.234375 -66.71875 C 52.773438 -67.757812 50.742188 -68.320312 48.140625 -68.40625 L 40.296875 -68.40625 L 40.296875 -13.46875 C 40.378906 -11.550781 40.550781 -10 40.8125 -8.8125 C 41.082031 -7.625 41.753906 -6.625 42.828125 -5.8125 C 43.910156 -5.007812 45.566406 -4.609375 47.796875 -4.609375 L 48.484375 -4.609375 C 49.171875 -4.609375 49.6875 -4.472656 50.03125 -4.203125 C 50.375 -3.929688 50.585938 -3.257812 50.671875 -2.1875 C 50.671875 -1.5 50.492188 -0.90625 50.140625 -0.40625 C 49.796875 0.09375 49.28125 0.34375 48.59375 0.34375 C 43.675781 0.113281 39.144531 0 35 0 C 30.394531 0 25.597656 0.113281 20.609375 0.34375 Z M 20.609375 0.34375 "/></g></g></g><g fill="#ffffff" fill-opacity="1"><g transform="translate(1129.902335, 705.564592)"><g><path d="M 20.609375 0.34375 C 19.921875 0.34375 19.40625 0.09375 19.0625 -0.40625 C 18.71875 -0.90625 18.546875 -1.5 18.546875 -2.1875 C 18.617188 -3.34375 18.847656 -4.035156 19.234375 -4.265625 C 19.617188 -4.492188 20.347656 -4.609375 21.421875 -4.609375 C 23.648438 -4.609375 25.300781 -5.007812 26.375 -5.8125 C 27.445312 -6.625 28.113281 -7.625 28.375 -8.8125 C 28.644531 -10 28.820312 -11.550781 28.90625 -13.46875 L 28.90625 -68.40625 L 20.953125 -68.40625 C 18.347656 -68.320312 16.332031 -67.757812 14.90625 -66.71875 C 13.488281 -65.6875 12.414062 -64.15625 11.6875 -62.125 C 10.957031 -60.09375 10.320312 -57.195312 9.78125 -53.4375 C 9.707031 -52.820312 9.25 -52.320312 8.40625 -51.9375 C 7.5625 -51.550781 6.675781 -51.359375 5.75 -51.359375 C 5.0625 -51.359375 4.429688 -51.566406 3.859375 -51.984375 C 3.285156 -52.410156 3 -52.96875 3 -53.65625 L 3.34375 -69.90625 C 3.34375 -71.738281 4.378906 -72.65625 6.453125 -72.65625 L 62.765625 -72.65625 C 64.753906 -72.65625 65.75 -71.738281 65.75 -69.90625 L 66.21875 -53.65625 C 66.21875 -52.96875 65.910156 -52.410156 65.296875 -51.984375 C 64.679688 -51.566406 64.023438 -51.359375 63.328125 -51.359375 C 62.410156 -51.359375 61.546875 -51.550781 60.734375 -51.9375 C 59.929688 -52.320312 59.492188 -52.820312 59.421875 -53.4375 C 58.804688 -57.269531 58.148438 -60.179688 57.453125 -62.171875 C 56.765625 -64.171875 55.691406 -65.6875 54.234375 -66.71875 C 52.773438 -67.757812 50.742188 -68.320312 48.140625 -68.40625 L 40.296875 -68.40625 L 40.296875 -13.46875 C 40.378906 -11.550781 40.550781 -10 40.8125 -8.8125 C 41.082031 -7.625 41.753906 -6.625 42.828125 -5.8125 C 43.910156 -5.007812 45.566406 -4.609375 47.796875 -4.609375 L 48.484375 -4.609375 C 49.171875 -4.609375 49.6875 -4.472656 50.03125 -4.203125 C 50.375 -3.929688 50.585938 -3.257812 50.671875 -2.1875 C 50.671875 -1.5 50.492188 -0.90625 50.140625 -0.40625 C 49.796875 0.09375 49.28125 0.34375 48.59375 0.34375 C 43.675781 0.113281 39.144531 0 35 0 C 30.394531 0 25.597656 0.113281 20.609375 0.34375 Z M 20.609375 0.34375 "/></g></g></g><g fill="#ffffff" fill-opacity="1"><g transform="translate(1198.978916, 705.564592)"><g><path d="M 6.90625 0.34375 C 6.21875 0.34375 5.703125 0.09375 5.359375 -0.40625 C 5.015625 -0.90625 4.84375 -1.5 4.84375 -2.1875 C 4.914062 -3.34375 5.160156 -4.035156 5.578125 -4.265625 C 6.003906 -4.492188 6.71875 -4.609375 7.71875 -4.609375 C 9.945312 -4.609375 11.597656 -5.007812 12.671875 -5.8125 C 13.742188 -6.625 14.429688 -7.601562 14.734375 -8.75 C 15.046875 -9.90625 15.238281 -11.476562 15.3125 -13.46875 L 15.3125 -59.1875 C 15.238281 -61.1875 15.046875 -62.757812 14.734375 -63.90625 C 14.429688 -65.0625 13.742188 -66.039062 12.671875 -66.84375 C 11.597656 -67.65625 9.945312 -68.0625 7.71875 -68.0625 L 7.03125 -68.0625 C 6.332031 -68.0625 5.8125 -68.191406 5.46875 -68.453125 C 5.125 -68.722656 4.914062 -69.394531 4.84375 -70.46875 C 4.84375 -71.164062 5.015625 -71.765625 5.359375 -72.265625 C 5.703125 -72.765625 6.21875 -73.015625 6.90625 -73.015625 C 11.894531 -72.773438 16.460938 -72.65625 20.609375 -72.65625 C 25.210938 -72.65625 30.007812 -72.773438 35 -73.015625 C 35.695312 -73.015625 36.21875 -72.765625 36.5625 -72.265625 C 36.90625 -71.765625 37.078125 -71.164062 37.078125 -70.46875 C 37.003906 -69.320312 36.753906 -68.632812 36.328125 -68.40625 C 35.910156 -68.175781 35.164062 -68.0625 34.09375 -68.0625 C 31.863281 -68.0625 30.207031 -67.65625 29.125 -66.84375 C 28.050781 -66.039062 27.378906 -65.039062 27.109375 -63.84375 C 26.847656 -62.65625 26.675781 -61.101562 26.59375 -59.1875 L 26.59375 -13.46875 C 26.675781 -11.550781 26.847656 -10 27.109375 -8.8125 C 27.378906 -7.625 28.050781 -6.625 29.125 -5.8125 C 30.207031 -5.007812 31.863281 -4.609375 34.09375 -4.609375 L 34.78125 -4.609375 C 35.539062 -4.609375 36.09375 -4.472656 36.4375 -4.203125 C 36.789062 -3.929688 37.003906 -3.257812 37.078125 -2.1875 C 37.078125 -1.5 36.90625 -0.90625 36.5625 -0.40625 C 36.21875 0.09375 35.695312 0.34375 35 0.34375 C 30.09375 0.113281 25.335938 0 20.734375 0 C 16.503906 0 11.894531 0.113281 6.90625 0.34375 Z M 6.90625 0.34375 "/></g></g></g><g fill="#ffffff" fill-opacity="1"><g transform="translate(184.786489, 605.98276)"><g><path d="M 4.03125 0.203125 C 3.675781 0.203125 3.394531 0.0546875 3.1875 -0.234375 C 2.988281 -0.523438 2.890625 -0.875 2.890625 -1.28125 C 2.929688 -1.945312 3.0625 -2.347656 3.28125 -2.484375 C 3.507812 -2.617188 3.9375 -2.6875 4.5625 -2.6875 C 5.863281 -2.6875 6.828125 -2.921875 7.453125 -3.390625 C 8.078125 -3.859375 8.46875 -4.441406 8.625 -5.140625 C 8.78125 -5.835938 8.882812 -6.742188 8.9375 -7.859375 L 8.9375 -34.53125 C 8.882812 -35.644531 8.78125 -36.546875 8.625 -37.234375 C 8.46875 -37.929688 8.078125 -38.515625 7.453125 -38.984375 C 6.828125 -39.460938 5.863281 -39.703125 4.5625 -39.703125 L 4.171875 -39.703125 C 3.722656 -39.703125 3.40625 -39.78125 3.21875 -39.9375 C 3.039062 -40.09375 2.929688 -40.484375 2.890625 -41.109375 C 2.890625 -41.515625 2.988281 -41.863281 3.1875 -42.15625 C 3.394531 -42.445312 3.675781 -42.59375 4.03125 -42.59375 C 6.988281 -42.457031 9.65625 -42.390625 12.03125 -42.390625 L 22.5 -42.390625 C 26.800781 -42.390625 30.707031 -41.523438 34.21875 -39.796875 C 37.738281 -38.078125 40.515625 -35.601562 42.546875 -32.375 C 44.585938 -29.15625 45.609375 -25.347656 45.609375 -20.953125 C 45.609375 -16.390625 44.453125 -12.53125 42.140625 -9.375 C 39.835938 -6.21875 36.835938 -3.863281 33.140625 -2.3125 C 29.453125 -0.769531 25.503906 0 21.296875 0 L 12.03125 0 C 9.65625 0 6.988281 0.0664062 4.03125 0.203125 Z M 22.296875 -2.484375 C 27.535156 -2.484375 31.375 -4.101562 33.8125 -7.34375 C 36.257812 -10.59375 37.484375 -15.128906 37.484375 -20.953125 C 37.484375 -24.628906 36.820312 -27.910156 35.5 -30.796875 C 34.175781 -33.679688 32.257812 -35.929688 29.75 -37.546875 C 27.25 -39.160156 24.273438 -39.96875 20.828125 -39.96875 L 15.578125 -39.90625 L 15.578125 -7.046875 C 15.578125 -5.304688 16.101562 -4.109375 17.15625 -3.453125 C 18.207031 -2.804688 19.921875 -2.484375 22.296875 -2.484375 Z M 22.296875 -2.484375 "/></g></g></g><g fill="#ffffff" fill-opacity="1"><g transform="translate(233.675778, 605.98276)"><g><path d="M 4.09375 0.203125 C 3.695312 0.203125 3.394531 0.0546875 3.1875 -0.234375 C 2.988281 -0.523438 2.890625 -0.875 2.890625 -1.28125 C 2.929688 -1.945312 3.0625 -2.347656 3.28125 -2.484375 C 3.507812 -2.617188 3.9375 -2.6875 4.5625 -2.6875 C 5.863281 -2.6875 6.828125 -2.921875 7.453125 -3.390625 C 8.078125 -3.859375 8.46875 -4.441406 8.625 -5.140625 C 8.78125 -5.835938 8.882812 -6.742188 8.9375 -7.859375 L 8.9375 -34.453125 C 8.882812 -35.617188 8.78125 -36.535156 8.625 -37.203125 C 8.46875 -37.878906 8.078125 -38.460938 7.453125 -38.953125 C 6.828125 -39.453125 5.863281 -39.703125 4.5625 -39.703125 L 4.171875 -39.703125 C 3.722656 -39.703125 3.40625 -39.78125 3.21875 -39.9375 C 3.039062 -40.09375 2.929688 -40.484375 2.890625 -41.109375 C 2.890625 -41.515625 2.988281 -41.863281 3.1875 -42.15625 C 3.394531 -42.445312 3.695312 -42.59375 4.09375 -42.59375 C 7.007812 -42.457031 9.675781 -42.390625 12.09375 -42.390625 L 23.640625 -42.390625 C 27.085938 -42.335938 29.960938 -41.785156 32.265625 -40.734375 C 34.578125 -39.679688 36.269531 -38.335938 37.34375 -36.703125 C 38.414062 -35.066406 38.953125 -33.3125 38.953125 -31.4375 C 38.953125 -28.96875 37.976562 -26.703125 36.03125 -24.640625 C 34.082031 -22.585938 31.429688 -21.113281 28.078125 -20.21875 L 29.21875 -18.40625 C 31.101562 -15.363281 32.804688 -12.753906 34.328125 -10.578125 C 35.847656 -8.410156 37.503906 -6.382812 39.296875 -4.5 C 40.546875 -3.46875 41.890625 -2.863281 43.328125 -2.6875 C 43.410156 -2.6875 43.609375 -2.675781 43.921875 -2.65625 C 44.242188 -2.632812 44.503906 -2.507812 44.703125 -2.28125 C 44.898438 -2.0625 45 -1.726562 45 -1.28125 C 45 -0.875 44.898438 -0.523438 44.703125 -0.234375 C 44.503906 0.0546875 44.203125 0.203125 43.796875 0.203125 L 42.046875 0.140625 C 40.078125 0.046875 38.644531 0 37.75 0 C 35.957031 -0.351562 34.421875 -0.988281 33.140625 -1.90625 C 31.867188 -2.832031 30.609375 -4.144531 29.359375 -5.84375 C 28.054688 -7.539062 26.238281 -10.316406 23.90625 -14.171875 L 22.703125 -16.125 C 22.035156 -17.15625 21.382812 -17.859375 20.75 -18.234375 C 20.125 -18.617188 19.050781 -18.8125 17.53125 -18.8125 L 15.578125 -18.8125 L 15.578125 -7.859375 C 15.628906 -6.742188 15.734375 -5.835938 15.890625 -5.140625 C 16.046875 -4.441406 16.4375 -3.859375 17.0625 -3.390625 C 17.6875 -2.921875 18.648438 -2.6875 19.953125 -2.6875 L 20.359375 -2.6875 C 20.753906 -2.6875 21.050781 -2.609375 21.25 -2.453125 C 21.457031 -2.296875 21.582031 -1.90625 21.625 -1.28125 C 21.625 -0.875 21.523438 -0.523438 21.328125 -0.234375 C 21.128906 0.0546875 20.828125 0.203125 20.421875 0.203125 C 17.554688 0.0664062 14.757812 0 12.03125 0 C 9.65625 0 7.007812 0.0664062 4.09375 0.203125 Z M 21.5 -21.421875 C 28.164062 -21.421875 31.5 -24.554688 31.5 -30.828125 C 31.5 -33.378906 30.625 -35.53125 28.875 -37.28125 C 27.132812 -39.03125 24.269531 -39.90625 20.28125 -39.90625 C 18.988281 -39.90625 18.003906 -39.742188 17.328125 -39.421875 C 16.660156 -39.109375 16.203125 -38.570312 15.953125 -37.8125 C 15.703125 -37.050781 15.578125 -35.890625 15.578125 -34.328125 L 15.578125 -21.421875 Z M 21.5 -21.421875 "/></g></g></g><g fill="#ffffff" fill-opacity="1"><g transform="translate(278.737207, 605.98276)"><g><path d="M 0.40625 0.203125 C 0 0.203125 -0.300781 0.0546875 -0.5 -0.234375 C -0.707031 -0.523438 -0.8125 -0.875 -0.8125 -1.28125 C -0.757812 -1.945312 -0.617188 -2.347656 -0.390625 -2.484375 C -0.171875 -2.617188 0.09375 -2.6875 0.40625 -2.6875 C 0.71875 -2.6875 0.914062 -2.6875 1 -2.6875 C 2.34375 -2.6875 3.328125 -3.03125 3.953125 -3.71875 C 4.585938 -4.414062 5.09375 -5.203125 5.46875 -6.078125 C 5.851562 -6.953125 6.113281 -7.546875 6.25 -7.859375 L 18 -35.671875 C 18.269531 -36.335938 18.40625 -36.875 18.40625 -37.28125 C 18.40625 -38.082031 18.09375 -38.660156 17.46875 -39.015625 C 16.84375 -39.378906 15.96875 -39.675781 14.84375 -39.90625 C 14.082031 -40.039062 13.613281 -40.171875 13.4375 -40.296875 C 13.257812 -40.429688 13.171875 -40.8125 13.171875 -41.4375 C 13.171875 -41.976562 13.3125 -42.335938 13.59375 -42.515625 C 13.882812 -42.691406 14.347656 -42.78125 14.984375 -42.78125 C 17.222656 -42.78125 19 -42.613281 20.3125 -42.28125 C 21.632812 -41.945312 22.785156 -41.273438 23.765625 -40.265625 C 24.753906 -39.265625 25.675781 -37.734375 26.53125 -35.671875 L 37.8125 -7.859375 C 38.488281 -6.160156 39.140625 -4.882812 39.765625 -4.03125 C 40.390625 -3.175781 41.332031 -2.726562 42.59375 -2.6875 L 42.984375 -2.6875 C 43.429688 -2.6875 43.742188 -2.609375 43.921875 -2.453125 C 44.109375 -2.296875 44.222656 -1.90625 44.265625 -1.28125 C 44.265625 -0.875 44.160156 -0.523438 43.953125 -0.234375 C 43.753906 0.0546875 43.457031 0.203125 43.0625 0.203125 C 40.195312 0.0664062 37.734375 0 35.671875 0 C 32.984375 0 30.207031 0.0664062 27.34375 0.203125 C 26.9375 0.203125 26.628906 0.0546875 26.421875 -0.234375 C 26.222656 -0.523438 26.125 -0.875 26.125 -1.28125 C 26.175781 -1.90625 26.289062 -2.296875 26.46875 -2.453125 C 26.644531 -2.609375 26.957031 -2.6875 27.40625 -2.6875 C 28.925781 -2.6875 30 -2.832031 30.625 -3.125 C 31.257812 -3.414062 31.578125 -3.941406 31.578125 -4.703125 C 31.578125 -5.285156 31.304688 -6.335938 30.765625 -7.859375 L 28.484375 -13.4375 L 11.890625 -13.4375 C 10.765625 -10.65625 10.125 -9.039062 9.96875 -8.59375 C 9.8125 -8.144531 9.734375 -7.898438 9.734375 -7.859375 C 9.203125 -6.160156 8.9375 -5.0625 8.9375 -4.5625 C 8.9375 -3.800781 9.269531 -3.296875 9.9375 -3.046875 C 10.613281 -2.804688 11.890625 -2.6875 13.765625 -2.6875 L 14.171875 -2.6875 C 14.617188 -2.6875 14.929688 -2.609375 15.109375 -2.453125 C 15.285156 -2.296875 15.398438 -1.90625 15.453125 -1.28125 C 15.453125 -0.875 15.347656 -0.523438 15.140625 -0.234375 C 14.941406 0.0546875 14.640625 0.203125 14.234375 0.203125 C 11.367188 0.0664062 8.929688 0 6.921875 0 C 5.484375 0 3.3125 0.0664062 0.40625 0.203125 Z M 13.171875 -16.328125 L 27.265625 -16.328125 L 20.484375 -33.578125 L 20.28125 -33.578125 Z M 13.171875 -16.328125 "/></g></g></g><g fill="#ffffff" fill-opacity="1"><g transform="translate(322.589817, 605.98276)"><g><path d="M 7.390625 0.8125 C 6.179688 0.8125 5.171875 0.421875 4.359375 -0.359375 C 3.554688 -1.148438 3.15625 -2.171875 3.15625 -3.421875 C 3.15625 -4.585938 3.554688 -5.570312 4.359375 -6.375 C 5.171875 -7.1875 6.203125 -7.59375 7.453125 -7.59375 C 8.660156 -7.59375 9.675781 -7.1875 10.5 -6.375 C 11.332031 -5.570312 11.75 -4.585938 11.75 -3.421875 C 11.75 -2.171875 11.332031 -1.148438 10.5 -0.359375 C 9.675781 0.421875 8.640625 0.8125 7.390625 0.8125 Z M 7.390625 0.8125 "/></g></g></g></svg>